<svg width="390" height="390" viewBox="0 0 390 390" fill="none" xmlns="http://www.w3.org/2000/svg">
<path fill-rule="evenodd" clip-rule="evenodd" d="M203.173 29.4491C250.828 36.7831 254.687 90.9677 288.295 118.353C312.964 138.455 356.257 142.026 371.991 167.011C388.586 193.364 379.426 224.01 373.058 252.953C365.599 286.856 368.861 329.474 332.082 348.406C295.19 367.398 247.354 340.931 203.173 340.406C160.039 339.893 110.804 366.387 77.0824 345.376C43.0996 324.203 66.3473 280.243 54.2703 247.629C42.8249 216.721 1.60631 192.185 8.614 160.479C15.7857 128.032 57.6717 109.278 89.6021 87.774C124.775 64.086 157.604 22.4359 203.173 29.4491Z" fill="#FAF1E4"/>
<path d="M121.749 272.28C121.073 269.002 116.968 266.878 113.873 267.27C113.359 267.337 113.109 268.144 113.729 268.28C116.28 268.846 120.609 269.99 120.408 273.415C120.213 276.671 116.245 278.243 113.481 278.444C103.351 279.179 101.616 269.614 110.884 267.869C110.974 267.843 111.051 267.785 111.102 267.707C111.153 267.629 111.174 267.535 111.162 267.442C111.149 267.35 111.104 267.265 111.034 267.203C110.964 267.141 110.874 267.106 110.781 267.104C107.754 267.342 104.281 268.881 103.587 272.135C102.283 278.247 110.984 281.919 117.584 278.857C120.061 277.709 122.352 275.207 121.749 272.28Z" fill="#1E705A"/>
<path d="M161.826 198.901C161.818 198.767 161.759 198.641 161.661 198.549C161.564 198.457 161.435 198.406 161.301 198.406C161.166 198.406 161.037 198.457 160.94 198.549C160.842 198.641 160.783 198.767 160.775 198.901C160.397 203.348 161.263 210.101 160.054 229.929C159.859 229.962 151.52 231.384 150.818 231.66C148.061 220.282 136.72 195.753 147.893 185.954C151.355 182.92 156.489 183.152 160.798 182.758C161.274 182.716 161.438 181.994 160.923 181.873C156.807 181.225 152.592 181.777 148.781 183.46C145.679 185.367 143.441 188.406 142.541 191.933C140.201 199.661 142.587 209.557 144.892 217.558C146.211 222.573 147.892 227.486 149.921 232.257C150.329 233.156 153.297 232.271 160.931 231.087C161.068 231.045 161.188 230.961 161.273 230.846C161.359 230.73 161.405 230.591 161.405 230.448C161.838 224.075 162.579 204.946 161.826 198.901Z" fill="#1E705A"/>
<path d="M163.491 206.063C164.94 206.379 166.434 206.435 167.903 206.229C170.093 206.177 172.273 205.929 174.418 205.486C175.754 205.434 177.051 205.021 178.17 204.291C178.23 204.229 178.274 204.155 178.3 204.073C178.326 203.992 178.332 203.905 178.318 203.821C178.303 203.737 178.27 203.657 178.219 203.588C178.168 203.519 178.102 203.463 178.026 203.425C176.794 203.304 175.551 203.473 174.397 203.92C167.613 205.285 165.476 204.484 163.477 205.26C163.407 205.302 163.35 205.361 163.31 205.432C163.271 205.504 163.251 205.584 163.252 205.665C163.253 205.747 163.276 205.826 163.318 205.896C163.36 205.966 163.419 206.023 163.491 206.063Z" fill="#1E705A"/>
<path d="M183.552 157.465C188.309 156.223 191.52 156.685 217.611 156.295C218.87 156.072 220.167 156.337 221.238 157.036C221.318 157.112 221.421 157.159 221.53 157.172C221.64 157.184 221.75 157.161 221.845 157.105C221.941 157.05 222.015 156.965 222.058 156.864C222.101 156.763 222.111 156.65 222.084 156.543C221.381 154.178 218.218 154.743 215.156 154.788C187.956 155.197 186.903 155.014 183.244 156.642C182.747 156.863 183.102 157.584 183.552 157.465Z" fill="#128c7e"/>
<path d="M186.045 158.909C187.584 159.21 188.625 158.993 194.272 158.786C206.61 158.334 201.442 158.275 210.97 158.168C216.984 158.1 217.922 158.264 219.527 158.043C219.644 158.043 219.757 157.997 219.84 157.914C219.923 157.831 219.969 157.718 219.969 157.601C219.969 157.483 219.923 157.371 219.84 157.288C219.757 157.205 219.644 157.158 219.527 157.158C217.532 156.883 207.392 157.377 202.601 157.322C199.693 157.291 195.074 157.538 190.189 157.796C188.793 157.79 187.401 157.957 186.045 158.291C185.778 158.394 185.737 158.849 186.045 158.909Z" fill="#128c7e"/>
<path d="M336.935 117.079C334.542 122.046 330.487 126.021 325.473 128.315C326.235 127.274 326.898 126.165 327.452 125C327.536 124.848 327.562 124.672 327.527 124.502C327.491 124.333 327.396 124.182 327.258 124.077C327.12 123.972 326.95 123.92 326.777 123.931C326.604 123.941 326.441 124.013 326.317 124.134C322.909 126.906 318.862 128.782 314.545 129.594C315.928 128.295 317.314 127.022 318.689 125.717C319.186 125.245 318.667 124.229 317.989 124.5C314.539 125.883 310.878 126.664 307.164 126.809C310.22 124.329 313.459 122.082 316.854 120.09C316.98 120.011 317.077 119.893 317.132 119.755C317.186 119.616 317.194 119.464 317.155 119.32C317.116 119.177 317.031 119.049 316.914 118.958C316.797 118.866 316.653 118.814 316.505 118.81C314.945 118.652 313.35 118.543 311.762 118.481C314.875 116.619 318.224 115.184 321.719 114.214C321.859 114.174 321.985 114.095 322.081 113.985C322.177 113.875 322.239 113.739 322.26 113.595C322.28 113.451 322.259 113.303 322.197 113.171C322.136 113.039 322.038 112.927 321.914 112.849C321.066 112.42 320.202 111.983 319.358 111.551C324.035 109.691 329.087 108.971 334.098 109.448C334.199 109.448 334.297 109.41 334.373 109.343C334.449 109.275 334.498 109.182 334.511 109.081C334.523 108.98 334.499 108.878 334.442 108.794C334.385 108.71 334.299 108.649 334.201 108.624C328.445 107.384 322.437 108.17 317.193 110.849C317.081 110.919 316.99 111.016 316.926 111.132C316.862 111.247 316.829 111.377 316.829 111.509C316.829 111.64 316.862 111.77 316.926 111.886C316.99 112.001 317.081 112.098 317.193 112.169C317.957 112.559 318.737 112.931 319.502 113.323C315.769 114.54 312.229 116.282 308.987 118.498C308.85 118.581 308.744 118.706 308.684 118.854C308.625 119.003 308.615 119.166 308.657 119.321C308.699 119.475 308.79 119.612 308.917 119.71C309.043 119.808 309.198 119.861 309.358 119.863C311.008 119.863 312.673 119.926 314.327 120.029C310.941 122.146 307.704 124.492 304.637 127.049C304.144 127.461 304.575 128.248 305.132 128.264C308.54 128.362 311.942 127.923 315.214 126.965C314.1 128.018 312.977 129.081 311.852 130.12C311.755 130.223 311.689 130.353 311.664 130.492C311.638 130.632 311.654 130.776 311.709 130.906C311.763 131.037 311.855 131.149 311.972 131.229C312.089 131.309 312.227 131.353 312.369 131.357C316.701 130.902 320.87 129.456 324.552 127.131C323.989 127.937 323.369 128.701 322.696 129.418C322.589 129.534 322.522 129.68 322.504 129.836C322.487 129.992 322.52 130.15 322.598 130.286C322.677 130.422 322.797 130.529 322.941 130.592C323.084 130.655 323.245 130.67 323.398 130.635C326.636 129.678 329.633 128.04 332.189 125.833C334.744 123.625 336.8 120.898 338.218 117.833C338.581 116.975 337.37 116.221 336.935 117.079Z" fill="#128c7e"/>
<path d="M325.924 121.534C329.674 120.364 332.014 117.244 334.192 114.174C334.582 113.619 333.943 112.971 333.367 113.102C332.932 113.199 332.502 113.309 332.088 113.432C329.465 113.48 326.876 114.032 324.462 115.06C323.947 115.268 323.74 116.204 324.462 116.318C324.936 116.394 325.409 116.462 325.883 116.544C324.575 117.222 323.327 118.008 322.151 118.895C321.659 119.27 321.761 120.177 322.502 120.151C326.23 120.034 326.451 119.176 325.265 120.358C325.159 120.466 325.09 120.606 325.07 120.757C325.05 120.908 325.079 121.061 325.153 121.193C325.228 121.326 325.343 121.431 325.482 121.492C325.621 121.553 325.776 121.568 325.924 121.534Z" fill="#128c7e"/>
<path d="M112.282 104.958C111.814 102.001 110.926 99.127 109.644 96.4224C110.35 96.2415 110.986 95.8517 111.468 95.3037C111.95 94.7558 112.255 94.0753 112.344 93.3512C112.539 91.5962 111.315 89.9426 109.663 90.2585C109.441 88.5035 108.298 86.8733 106.57 87.2067C105.695 85.206 102.723 84.4962 100.613 87.1853C100.252 86.9556 99.8417 86.8138 99.4157 86.7711C98.9898 86.7285 98.5597 86.7861 98.16 86.9396C97.6224 87.1822 97.1551 87.5573 96.8018 88.0296C96.4486 88.5019 96.2208 89.0561 96.1398 89.6403C95.53 89.5993 94.9207 89.7276 94.3792 90.0112C93.8378 90.2947 93.3853 90.7225 93.0717 91.2471C92.7581 91.7717 92.5957 92.3729 92.6024 92.984C92.609 93.5952 92.7846 94.1926 93.1095 94.7103C92.6968 95.0866 92.3854 95.5606 92.204 96.0888C92.0225 96.617 91.9769 97.1823 92.0713 97.7327C92.1657 98.2832 92.3971 98.801 92.7441 99.2386C93.0912 99.6761 93.5427 100.019 94.0572 100.237C93.844 100.606 93.7275 101.023 93.7184 101.45C93.7094 101.876 93.8081 102.298 94.0055 102.676C94.2028 103.055 94.4924 103.377 94.8475 103.613C95.2025 103.85 95.6114 103.993 96.0365 104.029C96.0579 104.029 96.0579 104.029 96.0774 104.051C95.7786 104.269 95.5274 104.545 95.3393 104.864C95.1512 105.182 95.0302 105.536 94.9837 105.903C94.9372 106.27 94.9661 106.642 95.0687 106.997C95.1714 107.353 95.3456 107.683 95.5806 107.969C95.8156 108.255 96.1065 108.489 96.4354 108.658C96.7643 108.827 97.1243 108.927 97.4933 108.952C97.8623 108.977 98.2326 108.927 98.5813 108.803C98.93 108.68 99.2498 108.487 99.5211 108.235C98.9888 108.943 100.841 113.038 104.86 114.626C104.734 115.568 104.962 116.523 105.5 117.307C105.577 117.436 105.703 117.529 105.849 117.566C105.996 117.602 106.151 117.579 106.28 117.502C106.409 117.424 106.502 117.299 106.539 117.152C106.575 117.006 106.552 116.851 106.475 116.722C106.165 116.178 105.982 115.572 105.939 114.947C106.975 115.271 108.088 115.249 109.111 114.885C110.133 114.52 111.009 113.833 111.607 112.927C113.128 110.675 112.689 107.535 112.282 104.958ZM111.112 110.874C110.959 111.436 110.686 111.958 110.31 112.403C109.935 112.848 109.466 113.206 108.938 113.452C108.41 113.697 107.835 113.825 107.252 113.825C106.67 113.825 106.094 113.697 105.566 113.452C103.292 112.34 101.43 110.534 100.248 108.296C100.204 108.219 100.135 108.16 100.053 108.126C99.9705 108.093 99.8797 108.087 99.7941 108.111C100.629 107.473 100.471 106.785 100.124 106.689C99.4392 106.494 99.096 107.023 98.5988 107.37C98.3414 107.583 98.0145 107.695 97.6801 107.683C97.3458 107.672 97.0274 107.538 96.7853 107.307C95.4203 106.09 96.8691 104.178 98.433 104.421C98.6826 104.46 98.8874 104.111 98.628 103.967C98.6066 103.947 98.5656 103.947 98.5442 103.926C99.2949 103.325 99.3983 102.294 98.277 101.307C98.5026 100.842 98.6232 100.334 98.6302 99.817C98.6373 99.3004 98.5307 98.7886 98.318 98.3178C98.6998 98.0624 99.025 97.7312 99.2732 97.3448C99.5215 96.9583 99.6875 96.5248 99.761 96.0714C100.605 95.9089 101.384 95.5083 102.007 94.917C102.407 95.1626 102.856 95.3191 103.322 95.376C103.788 95.4328 104.261 95.3887 104.708 95.2466C104.88 95.5591 105.113 95.8342 105.393 96.0558C105.673 96.2773 105.994 96.4409 106.337 96.537C106.681 96.633 107.04 96.6596 107.394 96.6151C107.749 96.5707 108.09 96.4561 108.399 96.2781C108.44 96.2976 108.462 96.319 108.503 96.319C109.441 98.5776 110.219 100.899 110.831 103.267C111.486 105.751 111.58 108.349 111.106 110.874H111.112Z" fill="#1E705A"/>
<path d="M102.223 101.247C102.103 101.306 101.997 101.39 101.912 101.494C101.828 101.598 101.767 101.719 101.733 101.849C101.7 101.978 101.695 102.114 101.719 102.245C101.743 102.377 101.795 102.502 101.872 102.612C101.934 102.779 102.045 102.924 102.19 103.028C102.335 103.133 102.508 103.192 102.686 103.198C102.865 103.205 103.041 103.158 103.193 103.065C103.345 102.971 103.466 102.835 103.541 102.672C103.986 101.567 102.876 100.592 102.223 101.247Z" fill="#1E705A"/>
<path d="M107.54 100.038C107.419 100.097 107.313 100.181 107.229 100.285C107.144 100.389 107.084 100.51 107.05 100.64C107.017 100.77 107.013 100.905 107.037 101.037C107.061 101.169 107.113 101.293 107.191 101.403C107.725 102.362 109.141 102.183 108.922 100.64C108.793 99.9853 108.037 99.5368 107.54 100.038Z" fill="#1E705A"/>
<path d="M102.717 97.783C102.075 97.7339 101.436 97.8968 100.896 98.2466C100.356 98.5964 99.9453 99.1138 99.7277 99.7193C99.6828 99.9669 100.022 100.24 100.223 100.008C100.488 99.6243 100.818 99.2898 101.198 99.0192C101.64 98.8316 102.121 98.754 102.6 98.793C103.109 98.7501 103.316 97.8902 102.717 97.783Z" fill="#1E705A"/>
<path d="M106.036 98.2157C107.034 98.282 106.992 98.1825 107.828 98.7714C108.362 99.1458 108.862 98.358 108.489 97.9056C108.153 97.5337 107.69 97.3004 107.19 97.251C106.691 97.2016 106.191 97.3398 105.788 97.6385C105.743 97.6872 105.713 97.748 105.701 97.8136C105.69 97.8792 105.698 97.9467 105.724 98.0078C105.75 98.069 105.794 98.1212 105.849 98.1581C105.905 98.195 105.97 98.215 106.036 98.2157Z" fill="#1E705A"/>
<path d="M106.965 106.896C107.131 106.89 107.295 106.85 107.447 106.78C107.598 106.71 107.734 106.611 107.847 106.489C107.96 106.366 108.048 106.222 108.105 106.066C108.163 105.909 108.189 105.743 108.182 105.576C108.159 104.525 107.853 103.5 107.296 102.608C106.871 101.594 106.247 100.676 105.461 99.9074C105.214 99.7124 104.97 100.03 105.007 100.256C105.221 101.592 106.397 102.791 106.842 104.092C106.995 104.429 107.079 104.793 107.09 105.163C106.932 106.459 105.504 105.079 104.389 105.576C103.905 105.792 104.644 107.072 106.965 106.896Z" fill="#1E705A"/>
<path d="M107.727 108.546C107.13 108.838 107.337 110.33 106.469 110.092C106.036 109.975 105.819 109.462 105.004 108.031C104.862 107.781 104.419 107.887 104.449 108.175C104.54 109.31 105.19 111.174 106.594 111.186C106.892 111.172 107.182 111.081 107.435 110.922C107.688 110.763 107.895 110.541 108.037 110.277C108.762 109.008 108.15 108.337 107.727 108.546Z" fill="#1E705A"/>
<path d="M98.2745 109.518C98.2175 109.467 98.1448 109.439 98.0689 109.436C97.9929 109.433 97.9184 109.457 97.8578 109.502C97.7972 109.548 97.7544 109.614 97.7365 109.688C97.7186 109.761 97.7268 109.839 97.7597 109.908C98.0293 110.818 98.1375 111.768 98.0795 112.716C98.1433 113.641 97.9806 114.568 97.6057 115.416C97.2039 116.235 98.3701 116.735 98.6977 116.056C99.1922 114.956 99.3938 113.747 99.2827 112.546C99.3392 111.999 99.2785 111.445 99.1047 110.923C98.9309 110.401 98.6479 109.922 98.2745 109.518Z" fill="#1E705A"/>
<path d="M135.662 264.709C134.969 263.016 129.123 239.513 125.313 225.806C112.689 180.401 106.614 176.865 105.088 164.385C105.081 164.246 105.039 164.11 104.966 163.991C104.894 163.872 104.792 163.773 104.672 163.703C104.551 163.633 104.414 163.595 104.275 163.591C104.135 163.588 103.997 163.62 103.873 163.683C103.707 163.748 103.541 163.828 103.397 163.89C96.9619 159.159 88.8226 158.559 80.9271 158.921C78.3609 159.006 75.8076 159.323 73.2987 159.869C73.1905 159.805 73.0691 159.765 72.9435 159.755C72.818 159.744 72.6917 159.763 72.5743 159.808C72.4569 159.854 72.3515 159.926 72.2662 160.019C72.1808 160.111 72.1178 160.222 72.0819 160.343C67.084 187.448 67.9752 201.97 70.4731 216.234C70.7147 217.187 70.8739 218.159 70.9489 219.139C70.9489 219.76 70.1689 219.76 69.9583 219.264C69.627 218.251 69.4061 217.205 69.2992 216.144C68.3809 210.986 67.7818 205.776 67.5052 200.544C67.4818 199.556 60.9747 187.583 59.6721 185.268C59.6372 185.127 59.568 184.996 59.4706 184.889C59.3731 184.781 59.2505 184.699 59.1136 184.649C58.9768 184.6 58.8299 184.586 58.6861 184.608C58.5423 184.629 58.4061 184.686 58.2895 184.773C54.701 185.893 51.1715 187.195 47.7147 188.673C47.5559 188.741 47.4259 188.863 47.3469 189.017C47.2679 189.171 47.2449 189.348 47.2818 189.517C50.16 203.594 53.1474 224.514 63.9387 235.305C71.179 242.545 79.6849 242.758 86.1219 232.563C91.0963 224.685 93.7678 212.457 94.4503 203.68C94.5127 198.856 94.54 194.032 94.5322 189.209C94.5419 189.021 94.6233 188.844 94.7595 188.715C94.8958 188.586 95.0765 188.513 95.2644 188.513C95.4524 188.513 95.6331 188.586 95.7694 188.715C95.9056 188.844 95.987 189.021 95.9967 189.209C95.9967 194.589 95.8114 199.909 95.398 205.248C97.3168 210.361 99.5184 215.351 101.624 220.38C105.842 230.453 106.593 234.615 115.251 252.479C118.09 258.329 121 264.179 123.683 270.105C123.792 270.279 123.963 270.406 124.162 270.46C124.361 270.513 124.573 270.49 124.755 270.393C128.322 268.872 131.9 267.347 135.352 265.549C135.483 265.458 135.584 265.329 135.639 265.178C135.695 265.028 135.703 264.864 135.662 264.709Z" fill="#075e54"/>
<path d="M156.01 73.3314C154.999 73.0251 153.932 72.9544 152.89 73.1247C152.453 73.2768 152.728 73.0799 151.33 75.5583C147.697 82.1418 143.481 88.386 138.733 94.2159C128.983 106.025 109.077 123 95.5011 115.904C94.7011 115.553 93.8396 115.363 92.9661 115.346C87.7284 114.761 82.3074 116.462 77.4831 118.357C55.5144 126.982 40.4117 142.829 25.7984 161.216C24.8234 162.435 23.9166 163.702 22.9338 164.907C22.8324 165.032 23.0157 165.215 23.1288 165.093C25.4914 167.069 27.7163 169.204 29.7881 171.483C29.8011 171.497 29.817 171.509 29.8348 171.517C29.8526 171.525 29.8719 171.529 29.8914 171.529C29.9109 171.529 29.9302 171.525 29.9481 171.517C29.9659 171.509 29.9818 171.497 29.9948 171.483C47.0495 153.781 72.5886 144.737 77.5962 141.55C78.5849 140.993 79.8816 139.934 81.0594 140.127C81.1195 140.144 81.1751 140.174 81.2218 140.215C81.2685 140.257 81.3052 140.308 81.329 140.366C81.3529 140.423 81.3633 140.486 81.3595 140.548C81.3557 140.61 81.3378 140.671 81.3071 140.725C80.7455 141.671 79.1445 142.069 78.1871 142.58C77.5299 142.933 76.8884 143.282 76.2371 143.631C72.149 150.801 69.528 158.713 68.5268 166.906C68.5252 166.939 68.5317 166.973 68.5457 167.003C68.5598 167.033 68.5809 167.059 68.6073 167.08C68.6338 167.1 68.6647 167.114 68.6975 167.119C68.7304 167.125 68.7641 167.123 68.7959 167.113C80.6909 163.858 86.9621 164.237 97.2659 165.629C100.679 166.041 104.051 166.738 107.347 167.711C108.083 167.998 106.622 166.346 113.964 151.916C122.247 135.644 122.934 139.953 139.92 119.036C150.496 106.049 157.878 90.7621 161.472 74.4039C161.403 73.9866 161.676 74.1621 156.01 73.3314Z" fill="#128c7e"/>
<path d="M154.261 71.6005C155.667 68.7184 154.17 66.1658 155.786 61.5814C156.296 60.6187 156.698 59.6024 156.984 58.5511C156.982 58.4625 156.957 58.3759 156.911 58.2998C156.866 58.2237 156.802 58.1608 156.725 58.1171C156.647 58.0735 156.56 58.0506 156.472 58.0508C156.383 58.051 156.296 58.0742 156.219 58.1182C154.932 59.023 153.984 62.5505 153.766 64.1164C153.425 66.5714 153.891 69.0226 153.725 71.4562C153.724 71.5198 153.745 71.5819 153.783 71.6326C153.822 71.6833 153.876 71.7198 153.937 71.7364C153.999 71.7529 154.064 71.7485 154.123 71.7239C154.181 71.6993 154.23 71.6559 154.261 71.6005Z" fill="#1E705A"/>
<path d="M158.463 65.1504C160.031 62.6383 161.091 59.8433 161.583 56.9234C161.857 56.15 161.857 55.306 161.583 54.5327C161.553 54.48 161.512 54.4349 161.462 54.401C161.411 54.3671 161.354 54.3453 161.294 54.3374C161.234 54.3294 161.173 54.3355 161.116 54.3552C161.059 54.3749 161.007 54.4076 160.965 54.4508C160.136 55.3926 160.908 56.8376 157.811 64.8618C157.644 65.2752 158.242 65.4839 158.463 65.1504Z" fill="#1E705A"/>
<path d="M162.134 64.0786C163.763 61.2512 164.952 58.1924 165.66 55.0072C166.023 54.166 166.074 53.223 165.804 52.3474C165.775 52.2944 165.733 52.249 165.683 52.2148C165.632 52.1807 165.575 52.1588 165.515 52.1508C165.454 52.1429 165.393 52.1491 165.336 52.169C165.278 52.1889 165.226 52.222 165.184 52.2655C164.225 53.1937 164.989 53.9601 161.66 63.8719C161.644 63.9324 161.65 63.9968 161.677 64.0533C161.704 64.1098 161.751 64.1547 161.808 64.1797C161.866 64.2048 161.93 64.2084 161.99 64.1898C162.05 64.1712 162.101 64.1318 162.134 64.0786Z" fill="#1E705A"/>
<path d="M168.197 55.2101C167.161 57.5949 166.442 59.8901 165.001 62.7546C164.542 63.3642 164.316 64.1169 164.361 64.8782C164.38 64.9394 164.412 64.9956 164.456 65.0427C164.499 65.0897 164.553 65.1265 164.612 65.1502C164.671 65.174 164.736 65.1841 164.799 65.1799C164.863 65.1757 164.925 65.1572 164.981 65.1258C165.761 64.7729 166.036 63.8505 166.383 63.1271C167.58 60.7288 168.506 58.205 169.145 55.602C169.26 55.0638 168.446 54.6329 168.197 55.2101Z" fill="#1E705A"/>
<path d="M169.865 60.2248C167.492 67.7966 164.472 68.1671 161.496 72.4298C161.164 72.9037 161.853 73.3249 162.239 73.0148C163.268 72.0409 164.225 70.9936 165.103 69.8812C167.443 67.2838 169.932 64.8287 170.442 60.3145C170.483 59.9557 169.963 59.9128 169.865 60.2248Z" fill="#1E705A"/>
<path d="M27.6974 171.426C26.7595 172.401 26.6308 173.421 24.6047 174.868C23.3025 175.809 21.7868 176.412 20.1938 176.623C19.3495 176.728 19.3495 178.056 20.1938 177.963C24.5443 177.481 28.0738 174.166 28.4189 171.861C28.4813 171.446 28.0289 171.077 27.6974 171.426Z" fill="#1E705A"/>
<path d="M20.812 173.922C18.4072 174.01 16.0308 173.378 13.987 172.108C10.9957 170.384 11.647 168.436 10.3366 167.407C9.90372 167.069 9.04767 168.021 10.75 170.829C11.424 171.891 12.3709 172.752 13.4917 173.323C15.7362 174.565 18.5422 175.735 21.0363 174.561C21.3073 174.417 21.1416 173.902 20.812 173.922Z" fill="#1E705A"/>
<path d="M18.1347 169.858C16.4031 169.985 15.1239 168.311 14.1138 167.116C12.583 165.304 12.7098 163.939 11.9688 163.138C11.9237 163.095 11.8683 163.064 11.8079 163.049C11.7475 163.034 11.6841 163.034 11.624 163.051C11.5639 163.067 11.5092 163.099 11.465 163.143C11.4208 163.187 11.3888 163.242 11.3721 163.302C11.4018 164.245 11.6217 165.173 12.0184 166.03C12.4151 166.887 12.9805 167.655 13.6809 168.288C14.8996 169.604 16.3114 171.182 18.2575 170.679C18.6943 170.569 18.6085 169.823 18.1347 169.858Z" fill="#1E705A"/>
<path d="M17.8667 166.746C16.9908 165.902 16.2903 164.892 15.8056 163.776C15.3863 162.833 15.4409 161.546 14.8774 160.727C14.8439 160.672 14.797 160.626 14.741 160.595C14.685 160.563 14.6218 160.547 14.5576 160.547C14.4933 160.547 14.4301 160.563 14.3741 160.595C14.3181 160.626 14.2712 160.672 14.2378 160.727C13.6957 161.752 14.3801 163.304 14.8364 164.272C15.4395 165.487 16.3404 166.529 17.4553 167.302C17.7614 167.532 18.1534 167.015 17.8667 166.746Z" fill="#1E705A"/>
<path d="M16.852 159.98C17.0589 161.144 17.5313 162.244 18.2326 163.196C20.44 166.166 21.4754 165.165 21.1205 164.598C20.2976 163.289 19.0574 163.233 17.6105 159.795C17.586 159.694 17.5224 159.608 17.4339 159.554C17.3454 159.5 17.2392 159.484 17.1386 159.508C17.038 159.533 16.9513 159.596 16.8976 159.685C16.8438 159.773 16.8274 159.88 16.852 159.98Z" fill="#1E705A"/>
<path d="M154.506 273.29C152.361 270.222 146.4 270.17 142.671 270.589C140.03 270.786 137.416 271.256 134.871 271.991C132.769 272.695 130.913 274.641 128.631 274.629C128.432 274.629 128.24 274.709 128.099 274.85C127.958 274.991 127.879 275.182 127.879 275.382C127.879 275.582 127.958 275.773 128.099 275.914C128.24 276.056 128.432 276.135 128.631 276.135C131.437 276.156 133.175 273.851 136.505 273.083C140.733 272.108 148.053 270.913 151.885 273.001C152.339 273.249 153.64 273.976 153.369 274.629C153.143 275.187 151.862 275.604 151.349 275.846C144.506 278.966 138.978 281.714 131.188 283.289C129.53 281.192 128.449 278.697 128.054 276.053C128.023 275.954 127.959 275.87 127.872 275.815C127.784 275.76 127.68 275.738 127.578 275.753C127.476 275.768 127.383 275.818 127.315 275.896C127.247 275.973 127.209 276.073 127.208 276.176C127.175 279.156 128.248 282.042 130.219 284.278C130.897 285.042 131.886 284.58 132.794 284.381C139.565 282.626 146.124 280.141 152.359 276.971C153.853 276.275 155.764 275.084 154.506 273.29Z" fill="#1E705A"/>
<path d="M54.749 176.123C53.1324 172.418 52.7795 173.03 50.6052 173.318C45.9613 174.045 41.4073 175.262 37.0196 176.947C34.8512 177.727 32.6458 178.49 30.5242 179.381C29.0597 179.995 27.2092 181.066 28.3597 182.864C29.476 184.303 31.064 185.304 32.8447 185.689C37.6967 186.617 42.6838 186.582 47.5223 185.586C49.8116 185.073 51.8942 183.123 54.2849 183.318C55.2599 183.396 55.2599 181.881 54.2849 181.813C51.3599 181.618 49.7277 183.844 45.7497 184.369C41.5338 184.925 34.8571 185.588 31.1248 183.421C30.6704 183.156 29.1748 182.226 29.5784 181.524C29.8904 180.99 31.2905 180.617 31.8268 180.411C38.384 177.608 45.2604 175.621 52.3017 174.494C53.7992 176.724 54.7002 179.301 54.9186 181.978C54.9455 182.067 55 182.144 55.0743 182.199C55.1486 182.255 55.2386 182.284 55.3311 182.284C55.4235 182.284 55.5136 182.255 55.5878 182.199C55.6621 182.144 55.7167 182.067 55.7435 181.978C55.9974 179.971 55.6513 177.933 54.749 176.123Z" fill="#1E705A"/>
<path d="M137.928 64.9387C118.198 43.9742 119.089 45.5713 118.487 45.7448C118.254 45.8162 118.057 45.9702 117.931 46.1777C117.824 46.1935 117.722 46.2358 117.636 46.3009C117.549 46.3659 117.48 46.4517 117.435 46.5502C115.271 51.9595 111.287 68.5696 109.91 74.6497C109.888 74.7519 109.888 74.8577 109.91 74.96C109.932 75.0623 109.976 75.1586 110.038 75.2425C110.101 75.3264 110.18 75.396 110.272 75.4464C110.364 75.4969 110.465 75.5271 110.57 75.535C111.231 75.535 118.818 71.8865 137.577 66.175C137.701 66.14 137.814 66.0738 137.905 65.9827C137.996 65.8917 138.063 65.7788 138.098 65.6549C138.133 65.5309 138.136 65.4 138.106 65.2747C138.076 65.1493 138.015 65.0336 137.928 64.9387ZM111.582 73.7137C114.941 58.5563 117.794 50.1986 118.407 47.4491C123.065 52.1291 135.97 65.1376 135.97 65.1376C127.915 67.6238 119.703 70.5118 111.582 73.7273V73.7137Z" fill="#1E705A"/>
<path d="M181.408 36.3293C181.407 36.2355 181.385 36.143 181.345 36.0584C181.304 35.9739 181.245 35.8994 181.172 35.8403C181.099 35.7812 181.014 35.739 180.923 35.7167C180.832 35.6943 180.737 35.6925 180.645 35.7112C180.575 35.6751 180.497 35.6562 180.418 35.6562C180.339 35.6562 180.261 35.6751 180.191 35.7112C175.319 38.2651 170.585 41.0724 166.007 44.1215C165.916 44.1769 165.842 44.2559 165.793 44.3501C165.744 44.4443 165.721 44.55 165.728 44.6561C165.734 44.7621 165.769 44.8644 165.829 44.9519C165.889 45.0395 165.972 45.109 166.069 45.1531C176.989 49.8448 180.261 52.0171 180.85 52.0171C180.932 52.0205 181.013 52.0067 181.089 51.9767C181.165 51.9468 181.234 51.9012 181.291 51.8429C181.349 51.7847 181.393 51.7151 181.422 51.6386C181.451 51.5622 181.463 51.4805 181.458 51.3989C181.458 42.6746 181.408 43.3142 181.408 36.3293ZM167.563 44.492C174.472 39.9797 178.512 37.9186 180.097 36.9475C180.138 40.5764 180.201 50.3674 180.201 50.3674C176.15 48.3062 171.903 46.327 167.553 44.492H167.563Z" fill="#128c7e"/>
<path d="M171.244 122.442C157.957 112.853 158.667 113.616 158.214 113.803C158.067 113.868 157.949 113.985 157.885 114.133C157.816 114.172 157.756 114.225 157.71 114.29C157.663 114.354 157.631 114.427 157.616 114.505C157.308 115.87 156.924 121.33 156.836 122.73C156.282 131.221 156.366 131.299 156.752 131.505C156.836 131.558 156.935 131.584 157.034 131.58C157.134 131.576 157.23 131.543 157.31 131.484C169.928 123.465 171.513 123.879 171.513 122.97C171.512 122.867 171.487 122.766 171.44 122.675C171.393 122.583 171.326 122.503 171.244 122.442ZM157.637 129.904C157.971 120.125 158.513 117.342 158.626 115.309C161.615 117.35 169.698 122.896 169.698 122.896C165.658 125.02 161.615 127.389 157.637 129.904Z" fill="#128c7e"/>
<path d="M246.163 90.859C246.055 90.8122 245.938 90.7899 245.82 90.7936C245.703 90.7973 245.587 90.827 245.482 90.8804C245.405 90.8189 245.31 90.7821 245.211 90.7748C245.112 90.7675 245.013 90.79 244.927 90.8395C239.541 93.9107 226.907 103.319 221.26 107.723C221.168 107.799 221.098 107.899 221.058 108.011C221.019 108.124 221.01 108.245 221.033 108.362C221.189 109.306 224.054 108.826 247.978 118.629C248.082 118.67 248.195 118.685 248.306 118.671C248.417 118.657 248.523 118.615 248.613 118.549C248.704 118.483 248.776 118.396 248.824 118.294C248.871 118.193 248.892 118.081 248.885 117.97C246.352 89.1566 246.627 91.0813 246.163 90.859ZM222.882 107.97C237.714 96.4652 241.641 94.525 245.168 91.8086C245.806 98.4659 247.497 116.979 247.497 116.979C239.588 113.723 231.3 110.692 222.882 107.97Z" fill="#1E705A"/>
<path d="M285.812 97.6951C285.603 95.5306 283.472 92.0401 280.843 93.1399C280.737 93.1701 280.644 93.2341 280.578 93.322C280.511 93.41 280.475 93.5172 280.475 93.6274C280.475 93.7375 280.511 93.8447 280.578 93.9327C280.644 94.0207 280.737 94.0846 280.843 94.1149C281.95 94.3099 282.943 94.9133 283.626 95.8055C284.052 96.5012 284.299 97.2923 284.342 98.1072C284.386 98.9221 284.225 99.735 283.875 100.472C283.525 101.209 282.996 101.847 282.337 102.328C281.678 102.81 280.909 103.118 280.1 103.227C279.082 103.314 278.065 103.045 277.223 102.466C276.381 101.887 275.766 101.034 275.482 100.053C275.309 99.0177 275.494 97.9545 276.008 97.0395C276.521 96.1244 277.332 95.4124 278.306 95.0216C278.407 94.9849 278.491 94.9114 278.541 94.8156C278.591 94.7198 278.602 94.6088 278.574 94.5047C278.545 94.4007 278.479 94.3112 278.387 94.2541C278.296 94.197 278.186 94.1766 278.08 94.1968C277.041 94.4233 276.096 94.9624 275.373 95.7417C274.65 96.521 274.182 97.5031 274.034 98.5559C273.885 99.6087 274.062 100.682 274.542 101.631C275.021 102.58 275.779 103.36 276.715 103.865C277.709 104.429 278.842 104.703 279.984 104.657C281.127 104.611 282.233 104.247 283.179 103.605C284.126 102.963 284.873 102.07 285.339 101.026C285.804 99.9812 285.968 98.8276 285.812 97.6951Z" fill="#1E705A"/>
<path d="M261.03 134.15C272.599 131.287 273.077 131.406 276.045 130.398C276.478 130.252 276.458 129.487 275.922 129.532C266.812 130.312 216.314 144.834 207.807 148.005C207.714 148.032 207.636 148.095 207.589 148.18C207.543 148.265 207.532 148.365 207.56 148.458C207.587 148.551 207.65 148.629 207.735 148.675C207.82 148.721 207.92 148.732 208.013 148.705C219.859 145.764 235.885 140.37 261.03 134.15Z" fill="#1E705A"/>
<path d="M276.896 130.893C276.73 130.419 275.921 130.439 275.948 131.016C276.036 132.236 276.272 133.441 276.65 134.604C276.913 135.491 277.02 136.683 277.968 137.036C278.054 137.059 278.145 137.054 278.227 137.02C278.309 136.987 278.378 136.927 278.422 136.85C278.883 136.029 278.212 135.078 277.949 134.253C277.596 133.141 277.286 132.007 276.896 130.893Z" fill="#1E705A"/>
<path d="M277.665 138.174C274.341 139.881 270.912 141.375 267.398 142.648C257.555 146.795 243.218 154.081 230.434 159.285C228.397 159.99 226.407 160.823 224.475 161.779C224.353 161.854 224.262 161.969 224.219 162.105C224.175 162.241 224.181 162.388 224.235 162.519C224.29 162.651 224.39 162.759 224.517 162.823C224.645 162.888 224.791 162.905 224.929 162.871C230.235 161.81 257.551 148.562 266.634 144.524C270.618 143.039 274.422 141.109 277.973 138.771C278.365 138.523 278.055 137.946 277.665 138.174Z" fill="#1E705A"/>
<path d="M292.202 132.89C290.762 132.859 290.515 134.333 286.157 134.581C284.074 134.7 281.59 134.06 279.722 135.179C279.373 135.388 279.493 136.022 279.948 135.983C283.327 135.686 286.888 136.593 290.478 135.138C291.285 134.811 292.416 134.358 292.601 133.405C292.611 133.345 292.609 133.283 292.593 133.223C292.578 133.164 292.551 133.109 292.514 133.06C292.476 133.012 292.429 132.972 292.375 132.943C292.322 132.913 292.263 132.896 292.202 132.89Z" fill="#1E705A"/>
<path d="M287.481 126.73C293.571 124.729 294.618 125.429 296.283 124.421C296.371 124.369 296.441 124.293 296.485 124.202C296.529 124.11 296.546 124.008 296.533 123.907C296.52 123.806 296.478 123.712 296.412 123.635C296.345 123.558 296.258 123.502 296.16 123.474C294.678 123.363 293.189 123.566 291.79 124.07C288.085 124.946 281.606 126.915 278.431 129.472C278.123 129.721 278.452 130.217 278.801 130.111C280.605 129.571 283.398 128.072 287.481 126.73Z" fill="#1E705A"/>
<path d="M287.953 128.525C287.539 128.747 287.83 129.453 288.282 129.287C297.133 126.064 297.252 126.898 298.282 125.886C298.322 125.845 298.35 125.793 298.365 125.738C298.379 125.682 298.379 125.623 298.365 125.567C298.35 125.512 298.322 125.46 298.282 125.419C298.242 125.377 298.193 125.346 298.138 125.329C297.296 125.137 296.416 125.216 295.622 125.555C292.953 126.226 290.377 127.223 287.953 128.525Z" fill="#1E705A"/>
<path d="M298.9 127.551C298.297 127.324 297.632 127.316 297.024 127.53C294.318 128.022 291.69 128.874 289.21 130.065C288.797 130.26 289.088 130.894 289.52 130.786C292.077 130.151 293.723 129.556 296.983 128.848C297.7 128.811 298.39 128.56 298.962 128.127C299.002 128.087 299.032 128.04 299.05 127.987C299.069 127.935 299.075 127.879 299.069 127.824C299.063 127.769 299.045 127.716 299.016 127.668C298.986 127.621 298.947 127.581 298.9 127.551Z" fill="#1E705A"/>
<path d="M283.831 126.073C285.463 125.788 285.531 125.293 290.461 123.331C291.148 123.14 291.782 122.794 292.316 122.321C292.362 122.271 292.393 122.209 292.405 122.142C292.417 122.075 292.409 122.007 292.384 121.944C292.358 121.881 292.315 121.827 292.259 121.787C292.203 121.748 292.138 121.726 292.07 121.723C290.529 121.889 289.051 122.424 287.76 123.283C286.244 123.836 284.829 124.637 283.576 125.654C283.536 125.694 283.512 125.746 283.505 125.802C283.499 125.858 283.512 125.914 283.541 125.962C283.57 126.01 283.615 126.047 283.667 126.067C283.72 126.087 283.777 126.089 283.831 126.073Z" fill="#1E705A"/>
<path d="M224.231 186.423C222.88 188.149 218.175 188.835 215.965 188.835C214.048 188.835 211.923 188.028 210.068 188.732C207.45 189.724 209.431 189.605 199.102 191.432C195.908 191.996 191.787 192.669 184.525 193.659C184.711 198.441 184.958 203.228 185.372 207.986C185.379 208.208 185.47 208.419 185.626 208.576C185.783 208.733 185.994 208.825 186.216 208.832C198.051 208.306 209.891 207.467 221.655 206.172C222.543 206.075 223.814 206.19 224.212 205.182C224.641 204.102 224.27 187.881 224.231 186.423Z" fill="#075e54"/>
<path d="M203.365 173.525C215.315 174.628 217.327 170.949 219.57 171.237C219.907 171.283 220.226 171.418 220.494 171.628C220.762 171.839 220.969 172.116 221.094 172.433C221.452 172.147 221.887 171.976 222.343 171.941C222.799 171.906 223.255 172.009 223.651 172.238C223.446 167.888 223.239 163.537 223.033 159.186C223.028 158.969 222.94 158.762 222.786 158.608C222.632 158.454 222.425 158.366 222.208 158.361C212.403 159.221 193.488 159.627 186.275 160.547C186.193 160.413 186.07 160.308 185.923 160.249C185.777 160.19 185.616 160.179 185.463 160.218C185.31 160.258 185.174 160.345 185.075 160.467C184.975 160.59 184.918 160.741 184.91 160.898C184.569 163.87 184.436 166.877 184.374 169.868C190.58 171.663 196.936 172.887 203.365 173.525Z" fill="#075e54"/>
<path d="M180.975 194.062C180.521 194.084 180.069 194.084 179.636 194.062C179.636 194.289 179.79 202.516 179.821 203.463C179.783 204.465 179.859 205.468 180.047 206.453C180.188 206.97 181.038 207.038 181.139 206.453C181.541 204.214 180.975 204.832 180.975 194.062Z" fill="#128c7e"/>
<path d="M181.8 169.175C181.901 167.876 181.995 166.558 182.108 165.259C182.457 163.349 182.575 161.404 182.459 159.466C182.379 158.97 181.716 159.093 181.572 159.466C181.29 160.425 181.131 161.415 181.098 162.414C180.994 163.362 180.624 167.609 180.542 168.783C180.955 168.927 181.367 169.052 181.8 169.175Z" fill="#128c7e"/>
<path d="M202.088 140.525C201.8 140.628 201.242 140.277 201.016 140.154C200.335 139.782 199.738 140.831 200.417 141.184C201.802 141.902 203.853 141.905 203.82 139.866C203.718 138.935 203.423 138.036 202.954 137.225C202.478 136.113 201.839 135.078 201.057 134.154C200.807 133.889 200.277 134.154 200.417 134.525C201.316 136.853 203.543 140.002 202.088 140.525Z" fill="#1E705A"/>
<path d="M197.61 135.185C197.439 135.537 197.394 135.937 197.48 136.319C197.567 136.701 197.78 137.042 198.085 137.287C198.171 137.336 198.267 137.364 198.366 137.37C198.464 137.376 198.563 137.36 198.654 137.322C198.745 137.285 198.827 137.227 198.893 137.153C198.958 137.08 199.006 136.992 199.033 136.897C199.053 136.877 199.053 136.856 199.074 136.835C199.675 135.477 198.054 134.3 197.61 135.185Z" fill="#1E705A"/>
<path d="M202.746 135.095C202.747 135.259 202.797 135.419 202.888 135.555C202.98 135.691 203.109 135.797 203.261 135.86C203.402 136.017 203.579 136.137 203.778 136.209C204.429 136.414 204.84 135.392 204.437 134.725C204.347 134.549 204.201 134.408 204.022 134.324C203.843 134.239 203.642 134.217 203.449 134.259C203.256 134.301 203.082 134.406 202.955 134.558C202.828 134.709 202.754 134.898 202.746 135.095Z" fill="#1E705A"/>
<path d="M196.189 133.634C196.173 133.697 196.181 133.763 196.21 133.821C196.239 133.879 196.288 133.924 196.348 133.949C196.408 133.974 196.475 133.976 196.536 133.956C196.598 133.936 196.65 133.894 196.684 133.839C197.388 132.7 198.842 133.059 198.725 132.169C198.476 131.173 196.555 131.82 196.189 133.634Z" fill="#1E705A"/>
<path d="M203.55 131.8C203.241 131.539 202.875 131.354 202.481 131.26C202.086 131.167 201.676 131.168 201.282 131.264C201.201 131.292 201.13 131.344 201.079 131.414C201.029 131.484 201.002 131.568 201.002 131.654C201.002 131.74 201.029 131.824 201.079 131.894C201.13 131.964 201.201 132.017 201.282 132.044C201.573 132.163 201.883 132.185 202.191 132.292C202.499 132.399 202.776 132.538 203.057 132.662C203.509 132.83 203.927 132.105 203.55 131.8Z" fill="#1E705A"/>
<path d="M199.287 142.319C199.636 143.099 200.028 143.933 200.937 144.173C201.574 144.343 202.559 144.152 202.729 143.411C202.748 143.325 202.743 143.236 202.713 143.153C202.684 143.071 202.632 142.998 202.562 142.944C202.493 142.89 202.41 142.857 202.323 142.848C202.236 142.84 202.148 142.856 202.07 142.896C201.697 143.12 201.434 143.383 200.978 143.184C200.493 142.895 200.095 142.481 199.823 141.987C199.777 141.922 199.707 141.877 199.628 141.861C199.55 141.845 199.468 141.86 199.4 141.902C199.332 141.944 199.282 142.01 199.261 142.088C199.24 142.165 199.249 142.248 199.287 142.319Z" fill="#1E705A"/>
<path d="M190.788 135.882C191.141 136.147 191.613 135.636 191.386 135.283C190.663 134.497 190.208 133.501 190.088 132.438C190.117 131.955 190.326 131.499 190.673 131.161C190.985 130.876 191.289 130.83 191.517 130.481C191.544 130.435 191.562 130.384 191.57 130.331C191.577 130.278 191.574 130.224 191.561 130.173C191.548 130.121 191.524 130.072 191.492 130.03C191.459 129.987 191.419 129.952 191.373 129.925C190.203 129.268 189.119 131.04 188.961 132.006C188.895 132.756 189.029 133.51 189.35 134.191C189.671 134.872 190.167 135.456 190.788 135.882Z" fill="#1E705A"/>
<path d="M191.429 128.196C191.737 128.443 192.316 128.112 192.047 127.722C191.81 127.437 191.666 127.088 191.633 126.719C191.6 126.351 191.679 125.981 191.862 125.659C192.363 124.941 193.061 125.169 193.697 124.752C194.151 124.358 194.499 123.855 194.707 123.29C195.071 122.719 195.291 122.067 195.346 121.392C195.344 121.288 195.311 121.187 195.252 121.101C195.193 121.015 195.11 120.949 195.014 120.909C194.917 120.87 194.811 120.859 194.709 120.879C194.607 120.898 194.512 120.947 194.438 121.02C193.806 121.769 193.761 123.022 193.016 123.639C192.431 124.114 191.676 124.071 191.119 124.733C190.908 124.979 190.749 125.265 190.651 125.573C190.553 125.882 190.517 126.207 190.546 126.529C190.575 126.852 190.668 127.165 190.819 127.452C190.971 127.738 191.178 127.991 191.429 128.196Z" fill="#1E705A"/>
<path d="M200.521 121.779C200.564 121.703 200.589 121.617 200.594 121.529C200.599 121.441 200.584 121.353 200.551 121.272C200.517 121.191 200.466 121.118 200.4 121.059C200.335 121.001 200.257 120.958 200.172 120.933C199.577 120.851 199.443 121.3 198.645 122.645C198.402 123.059 198.152 123.466 197.614 123.425C197.543 123.428 197.475 123.45 197.417 123.49C197.358 123.53 197.312 123.585 197.284 123.65C197.256 123.715 197.247 123.786 197.258 123.856C197.269 123.925 197.3 123.99 197.347 124.043C198.772 125.258 200.043 122.747 200.521 121.779Z" fill="#1E705A"/>
<path d="M194.153 130.152C193.734 130.825 194.278 132.023 193.246 134.337C193.221 134.382 193.204 134.431 193.198 134.482C193.191 134.533 193.195 134.585 193.208 134.635C193.222 134.685 193.245 134.731 193.276 134.772C193.308 134.813 193.347 134.847 193.392 134.872C193.436 134.898 193.486 134.915 193.537 134.921C193.588 134.928 193.64 134.924 193.689 134.911C193.739 134.897 193.786 134.874 193.826 134.843C193.867 134.811 193.901 134.772 193.927 134.727C195.407 132.27 194.722 131.997 195.081 130.872C195.728 130.852 196.343 130.591 196.808 130.142C197.273 129.692 197.554 129.086 197.597 128.44C198.977 128.245 200.543 126.995 200.461 125.595C200.458 125.531 200.439 125.47 200.406 125.415C200.373 125.36 200.327 125.314 200.272 125.282C200.217 125.249 200.155 125.23 200.091 125.227C200.027 125.224 199.963 125.237 199.906 125.264C198.736 125.833 198.63 127.409 196.998 127.224C196.567 127.175 196.362 127.656 196.413 127.986C196.462 128.343 196.384 128.707 196.192 129.012C195.999 129.317 195.706 129.545 195.362 129.655C194.851 129.835 194.479 129.634 194.153 130.152Z" fill="#1E705A"/>
<path d="M200.296 129.226C200.981 128.993 201.601 128.603 202.109 128.088C202.617 127.572 202.998 126.946 203.221 126.258C204 126.351 204.787 126.193 205.47 125.807C206.152 125.422 206.694 124.828 207.016 124.113C207.034 124.039 207.034 123.962 207.013 123.888C206.993 123.815 206.954 123.748 206.9 123.694C206.845 123.64 206.778 123.601 206.705 123.581C206.631 123.561 206.554 123.56 206.48 123.579C205.413 123.733 204.647 125.334 202.954 124.919C202.791 124.876 202.617 124.899 202.471 124.984C202.325 125.069 202.218 125.208 202.174 125.371C201.873 126.657 201.1 127.782 200.01 128.526C199.68 128.758 199.844 129.376 200.296 129.226Z" fill="#1E705A"/>
<path d="M206.337 127.056C205.566 127.732 204.611 128.163 203.593 128.292C203.483 128.3 203.38 128.349 203.305 128.429C203.229 128.51 203.188 128.616 203.188 128.726C203.188 128.836 203.229 128.943 203.305 129.023C203.38 129.104 203.483 129.153 203.593 129.16C204.821 129.239 206.039 128.889 207.037 128.169C209.287 126.489 208.718 125.196 208.028 125.346C207.244 125.516 206.895 126.58 206.337 127.056Z" fill="#1E705A"/>
<path d="M207.119 130.132C208.196 130.106 209.219 129.654 209.964 128.876C211.969 126.815 211.575 125.21 210.939 125.617C209.714 126.397 209.363 128.798 206.981 129.127C206.398 129.201 206.563 130.147 207.119 130.132Z" fill="#1E705A"/>
<path d="M198.684 147.576C201.159 149.183 204.415 149.575 206.334 147.266C207.96 145.316 207.758 142.391 207.549 140.01C207.433 136.825 206.734 133.687 205.488 130.754C205.324 130.422 204.873 130.67 204.932 130.999C205.542 134.48 207.57 143.549 205.281 146.256C205.18 145.987 205.055 145.741 204.973 145.476C204.917 145.328 204.807 145.208 204.666 145.139C204.524 145.07 204.361 145.058 204.21 145.106C204.11 145.049 203.995 145.024 203.881 145.035C203.766 145.047 203.658 145.093 203.571 145.168C203.465 145.098 203.336 145.069 203.211 145.088C203.085 145.108 202.971 145.173 202.89 145.271C202.78 145.245 202.665 145.248 202.556 145.281C202.448 145.313 202.35 145.374 202.272 145.457C202.204 145.377 202.112 145.323 202.009 145.303C201.907 145.283 201.801 145.298 201.708 145.345C201.615 145.393 201.541 145.47 201.498 145.565C201.454 145.66 201.444 145.767 201.469 145.868C201.572 146.396 201.774 146.9 202.065 147.352C200.464 147.067 199.021 146.21 198.004 144.94C197.404 144.083 196.86 143.188 196.375 142.26C196.347 142.214 196.313 142.173 196.272 142.138C196.627 141.426 196.163 140.909 195.687 141.065C195.149 141.243 194.739 141.689 194.141 141.724C193.773 141.704 193.419 141.58 193.118 141.368C192.817 141.155 192.582 140.862 192.44 140.523C192.298 140.183 192.254 139.81 192.313 139.447C192.372 139.084 192.533 138.744 192.776 138.468C193.31 137.848 194.014 138.021 194.726 137.91C194.785 137.894 194.839 137.864 194.884 137.823C194.929 137.782 194.964 137.731 194.986 137.675C195.008 137.618 195.017 137.556 195.011 137.496C195.005 137.435 194.985 137.377 194.952 137.325C194.295 136.231 192.686 136.605 191.881 137.325C191.292 137.834 190.901 138.535 190.777 139.303C190.653 140.072 190.803 140.86 191.201 141.529C191.6 142.197 192.221 142.705 192.956 142.962C193.691 143.218 194.493 143.208 195.221 142.933C195.565 144.508 196.455 145.911 197.735 146.892C197.492 148.257 196.903 149.538 196.024 150.61C195.707 150.365 195.512 150.117 195.613 149.922C195.751 149.651 195.449 149.222 195.159 149.448C193.29 150.901 197.633 152.847 198.643 153.034C199.948 153.262 201.287 153.192 202.561 152.828C204.082 152.564 205.51 151.911 206.705 150.932C206.77 150.862 206.815 150.773 206.832 150.678C206.849 150.583 206.839 150.485 206.802 150.396C206.765 150.307 206.703 150.23 206.623 150.175C206.544 150.12 206.45 150.089 206.354 150.086C205.388 150.252 204.46 150.587 203.612 151.076C202.595 151.587 201.477 151.866 200.339 151.892C199.202 151.919 198.072 151.693 197.033 151.231C197.574 150.792 198.005 150.234 198.292 149.599C198.578 148.965 198.713 148.272 198.684 147.576Z" fill="#1E705A"/>
<path d="M210.334 185.608C205.985 186.436 203.565 188.279 193.369 189.153C186.833 189.849 180.226 189.445 173.824 187.957C171.546 187.204 169.422 186.045 167.557 184.535C158.569 178.024 160.962 166.4 169.312 159.548C175.942 154.102 184.489 152.59 192.462 150.065C192.546 150.031 192.614 149.968 192.654 149.887C192.694 149.806 192.702 149.714 192.678 149.627C192.654 149.54 192.599 149.465 192.523 149.416C192.447 149.368 192.356 149.349 192.267 149.363C184.557 150.923 176.439 152.793 169.94 157.446C164.316 161.471 160.077 167.712 160.58 174.887C160.946 180.097 163.31 184.525 171.402 188.472C175.901 190.666 185.31 190.956 190.307 190.719C194.125 190.546 197.923 190.077 201.668 189.317C204.866 188.952 207.943 187.882 210.677 186.183C210.952 185.916 210.623 185.551 210.334 185.608Z" fill="#1E705A"/>
<path d="M210.81 176.252C210.806 176.122 210.752 175.998 210.66 175.906C210.568 175.814 210.445 175.761 210.314 175.757C209.098 175.669 207.84 175.562 206.609 175.468C192.511 174.429 182.059 170.334 179.768 170.252C179.653 170.255 179.542 170.295 179.451 170.366C179.361 170.437 179.296 170.536 179.266 170.647C179.236 170.758 179.242 170.876 179.285 170.983C179.327 171.09 179.403 171.18 179.501 171.241C181.733 172.606 201.674 177.442 209.825 176.767C209.713 179.61 209.912 182.456 210.418 185.255C210.445 185.337 210.501 185.407 210.575 185.453C210.648 185.498 210.736 185.517 210.822 185.504C210.907 185.492 210.986 185.45 211.044 185.386C211.102 185.321 211.136 185.239 211.139 185.152C210.879 182.193 210.769 179.222 210.81 176.252Z" fill="#1E705A"/>
<path d="M183.657 169.758C183.719 166.934 183.822 164.103 183.822 161.306C183.822 161.232 183.793 161.161 183.741 161.109C183.688 161.057 183.617 161.027 183.544 161.027C183.47 161.027 183.399 161.057 183.346 161.109C183.294 161.161 183.265 161.232 183.265 161.306C183.052 164.011 182.812 166.727 182.668 169.469C182.998 169.553 183.327 169.656 183.657 169.758Z" fill="#128c7e"/>
<path d="M183.904 201.504C183.832 199.587 183.697 194.473 183.697 193.835C183.286 193.876 182.853 193.938 182.439 193.958C182.896 207.196 182.865 206.299 183.101 206.925C183.13 207.019 183.189 207.102 183.269 207.16C183.348 207.218 183.444 207.25 183.543 207.25C183.642 207.25 183.738 207.218 183.818 207.16C183.897 207.102 183.956 207.019 183.986 206.925C184.226 206.019 184.077 205.833 183.904 201.504Z" fill="#128c7e"/>
<path d="M212.724 176.284C214.033 176.442 215.358 176.19 216.517 175.563C217.506 175.173 218.908 174.744 219.259 173.644C219.271 173.599 219.273 173.551 219.265 173.506C219.256 173.46 219.237 173.416 219.21 173.379C219.182 173.341 219.146 173.31 219.104 173.289C219.063 173.267 219.017 173.255 218.97 173.254C217.859 173.141 216.722 174.157 215.714 174.531C214.621 174.75 213.566 175.125 212.58 175.645C212.529 175.688 212.49 175.745 212.469 175.809C212.448 175.873 212.444 175.942 212.459 176.008C212.474 176.074 212.507 176.134 212.553 176.183C212.6 176.232 212.659 176.267 212.724 176.284Z" fill="#1E705A"/>
<path d="M214.536 178.949C219.021 179.471 222.609 176.544 222.782 174.228C222.827 173.629 222.016 173.522 221.731 173.937C221.417 174.529 221.066 175.101 220.68 175.649C219.011 177.572 216.447 177.794 214.475 178.268C214.392 178.284 214.317 178.33 214.265 178.398C214.213 178.466 214.189 178.551 214.197 178.636C214.204 178.721 214.243 178.8 214.306 178.858C214.369 178.916 214.451 178.948 214.536 178.949Z" fill="#1E705A"/>
<path d="M216.661 181.546C218.453 181.616 220.221 181.118 221.712 180.123C222.603 179.592 224.537 178.368 223.96 177.133C223.929 177.074 223.881 177.025 223.823 176.992C223.764 176.959 223.698 176.944 223.631 176.948C223.094 176.989 222.952 177.239 222.621 177.629C220.962 179.26 218.848 180.353 216.558 180.762C216.057 180.869 216.228 181.501 216.661 181.546Z" fill="#1E705A"/>
<path d="M217.239 184.162C218.582 184.4 219.966 184.212 221.197 183.626C222.186 183.209 223.769 182.651 224.208 181.586C224.309 181.339 224.064 181.13 223.857 181.112C222.882 181.023 221.921 181.961 221.074 182.39C219.914 182.985 218.644 183.336 217.342 183.421C216.931 183.445 216.786 184.08 217.239 184.162Z" fill="#1E705A"/>
<path d="M213.387 186.558C214.895 187.019 216.481 187.167 218.048 186.99C219.218 186.868 221.068 186.71 221.753 185.651C221.785 185.595 221.805 185.533 221.809 185.469C221.814 185.405 221.804 185.34 221.78 185.28C221.757 185.22 221.719 185.167 221.672 185.124C221.624 185.08 221.567 185.049 221.505 185.031C220.197 184.727 218.898 186.298 213.51 185.67C212.976 185.608 212.913 186.411 213.387 186.558Z" fill="#1E705A"/>
<path d="M233.031 169.445C230.387 169.648 227.901 170.78 226.011 172.639C225.759 172.947 225.989 173.489 226.422 173.361C227.337 173.019 228.225 172.613 229.082 172.146C230.548 171.315 232.217 170.912 233.9 170.981C235.583 171.05 237.213 171.588 238.606 172.536C245.474 177.69 242.506 190.148 240.193 198.613C236.911 210.637 232.339 219.507 229.308 226.96C228.363 226.016 222.134 226.364 220.795 226.467C220.754 224.156 220.769 221.847 220.876 219.56C221.146 213.852 221.481 213.464 221.124 212.035C221.094 211.939 221.037 211.854 220.96 211.789C220.883 211.725 220.789 211.684 220.69 211.671C220.59 211.658 220.489 211.674 220.398 211.716C220.307 211.759 220.23 211.827 220.176 211.912C219.02 214.162 219.043 224.827 219.145 227.352C219.147 227.57 219.235 227.779 219.389 227.933C219.543 228.087 219.752 228.175 219.97 228.177C221.53 228.023 223.09 227.929 224.65 227.929C226.121 228.133 227.613 228.126 229.082 227.91C229.143 227.896 229.199 227.867 229.246 227.826C229.312 227.9 229.394 227.958 229.486 227.996C229.578 228.034 229.677 228.051 229.776 228.045C229.875 228.039 229.972 228.011 230.059 227.963C230.146 227.914 230.22 227.847 230.277 227.766C232.73 223.07 234.912 218.238 236.812 213.293C240.287 204.816 244.612 192.038 244.565 182.843C244.512 173.372 238.616 168.792 233.031 169.445Z" fill="#1E705A"/>
<path d="M230.019 244.941C215.084 256.446 166.318 294.703 159.017 298.542C151.765 302.357 144.794 299.976 135.783 298.047C51.3109 279.978 54.2729 281.113 52.2488 279.803C51.4785 279.39 50.8881 278.706 50.5911 277.884C50.2941 277.062 50.3116 276.159 50.6401 275.349C50.7059 275.226 50.7214 275.083 50.6833 274.949C50.6452 274.815 50.5564 274.701 50.4358 274.631C50.3152 274.562 50.1722 274.542 50.037 274.575C49.9019 274.609 49.7853 274.695 49.7119 274.813C48.1675 277.543 50.3164 280.388 52.8046 281.494C54.3938 282.2 48.9806 281.076 139.164 300.399C143.084 301.445 147.108 302.046 151.163 302.191C159.218 302.064 164.77 296.731 173.841 290.048C182.811 283.438 191.633 276.65 200.414 269.784C211.219 261.335 222.349 253.269 232.979 244.611C231.655 244.802 231.12 244.82 230.019 244.941Z" fill="#1E705A"/>
<path d="M377.758 191.508C376.393 196.956 372.078 217.248 370.995 221.897C369.071 230.389 366.711 238.777 363.925 247.026C363.429 248.68 363.174 248.781 361.327 248.586C361.099 248.563 343.953 247.545 335.186 247.576C335.074 247.59 334.971 247.643 334.895 247.727C334.82 247.81 334.777 247.918 334.775 248.031C334.772 248.143 334.81 248.253 334.882 248.34C334.954 248.426 335.055 248.484 335.166 248.502C345.187 249.417 362.138 250.029 362.337 250.029C362.791 250.078 363.25 250.002 363.664 249.809C364.079 249.617 364.432 249.314 364.687 248.935C365.225 247.983 365.614 246.955 365.841 245.886C366.267 244.249 367.064 241.908 367.614 240.092C372.737 223.188 374.665 210.739 379.201 191.666C379.47 190.855 377.984 190.599 377.758 191.508Z" fill="#1E705A"/>
<path d="M361.488 226.53C361.473 226.653 361.502 226.777 361.57 226.881C361.638 226.985 361.741 227.061 361.86 227.096C361.98 227.13 362.107 227.121 362.221 227.071C362.334 227.02 362.425 226.93 362.479 226.818C364.13 221.807 364.534 218.663 369.304 196.864C369.333 196.657 369.281 196.447 369.158 196.277C369.035 196.108 368.851 195.993 368.644 195.958C329.676 191.773 331.67 191.989 328.938 191.978C328.793 191.969 328.65 192.016 328.538 192.109C328.426 192.201 328.354 192.333 328.336 192.478C328.317 192.622 328.354 192.768 328.44 192.886C328.525 193.003 328.651 193.085 328.794 193.112C331.631 193.625 328.691 193.231 367.634 197.42C363.097 217.78 362.19 220.824 361.488 226.53Z" fill="#1E705A"/>
<path d="M256.761 216.307C251.988 225.263 253.396 228.865 257.216 233.358C261.326 238.192 261.03 239.251 263.009 245.272C264.727 250.506 268.253 258.08 273.131 260.736C277.226 262.964 281.768 261.401 282.8 258.92C282.995 258.468 282.554 257.809 282.1 258.158C281.031 259.172 279.716 259.889 278.285 260.24C272.759 261.137 268.99 255.365 266.535 250.385C263.707 244.668 263.247 238.769 259.792 234.346C258.58 232.982 257.438 231.558 256.369 230.08C253.69 225.833 255.572 220.866 257.344 216.679C257.516 216.26 256.991 215.87 256.761 216.307Z" fill="#1E705A"/>
<path d="M297.373 203.279C297.826 203.23 298.278 203.125 298.738 203.031C299.199 202.995 299.651 202.891 300.08 202.721C300.171 202.667 300.244 202.587 300.29 202.492C300.336 202.397 300.354 202.291 300.341 202.186C300.327 202.081 300.284 201.982 300.215 201.902C300.147 201.821 300.057 201.762 299.955 201.732C298.98 201.643 298 201.836 297.132 202.288C296.693 202.553 296.859 203.333 297.373 203.279Z" fill="#1E705A"/>
<path d="M295.828 206.764C295.527 206.486 295.194 206.243 294.837 206.041C295.558 204.993 295.866 203.716 295.703 202.455C295.686 202.041 295.044 202.041 295.066 202.455C295.081 203.727 294.625 204.961 293.786 205.918C293.747 205.979 293.726 206.051 293.726 206.124C293.726 206.197 293.747 206.268 293.786 206.329C294.18 206.891 294.744 207.311 295.395 207.527C295.492 207.551 295.594 207.544 295.686 207.505C295.777 207.466 295.854 207.397 295.903 207.311C295.952 207.224 295.971 207.124 295.958 207.025C295.944 206.926 295.899 206.834 295.828 206.764Z" fill="#1E705A"/>
<path d="M299.519 207.913C299.515 207.792 299.472 207.675 299.396 207.58C299.321 207.485 299.217 207.416 299.1 207.384C298.982 207.351 298.858 207.358 298.744 207.401C298.631 207.444 298.534 207.523 298.468 207.625C297.103 209.645 295.693 208.99 294.531 209.15C294.468 209.152 294.406 209.172 294.354 209.209C294.302 209.245 294.262 209.295 294.238 209.354C294.213 209.413 294.207 209.477 294.218 209.539C294.23 209.602 294.259 209.659 294.303 209.706C294.936 210.15 295.708 210.351 296.477 210.272C297.247 210.192 297.961 209.837 298.49 209.273C298.507 210.401 298.165 211.506 297.515 212.428C296.54 213.498 296.171 212.223 295.906 211.521C295.785 211.063 295.498 210.667 295.102 210.408C294.556 210.062 294.215 211.679 295.329 213.315C296.629 215.216 300.299 214.111 299.519 207.913Z" fill="#1E705A"/>
<path d="M295.253 220.575C290.744 219.99 286.246 223.463 283.502 226.739C280.395 230.902 278.056 235.586 276.595 240.572C276.566 240.682 276.577 240.8 276.627 240.903C276.677 241.005 276.763 241.087 276.868 241.132C276.973 241.177 277.091 241.182 277.2 241.148C277.309 241.113 277.401 241.04 277.461 240.942C279.007 238.365 281.166 228.254 288.985 223.482C290.961 222.398 293.087 221.612 295.294 221.152C295.362 221.137 295.423 221.097 295.465 221.041C295.507 220.985 295.527 220.916 295.522 220.846C295.517 220.776 295.487 220.71 295.438 220.66C295.388 220.61 295.323 220.58 295.253 220.575Z" fill="#1E705A"/>
<path d="M288.923 232.22C281.053 239.642 285.512 244.573 286.677 249.208C287.745 253.469 286.72 254.584 287.047 256.464C287.077 256.568 287.137 256.661 287.22 256.731C287.302 256.802 287.404 256.846 287.511 256.859C287.619 256.873 287.728 256.854 287.825 256.806C287.922 256.758 288.003 256.683 288.057 256.589C288.474 255.679 288.665 254.681 288.613 253.682C288.781 249.614 287.531 247.346 286.408 244.127C284.582 238.908 286.63 236.9 289.604 232.727C289.896 232.325 289.274 231.89 288.923 232.22Z" fill="#1E705A"/>
<path d="M288.549 348.245C288.442 346.122 288.222 343.998 287.992 341.875C288.015 340.075 287.634 338.292 286.878 336.658C285.394 334.371 280.736 333.609 279.437 336.37C276.707 340.465 281.721 349.716 284.983 353.399C285.786 354.306 287.257 354.906 287.992 353.563C288.614 351.864 288.805 350.037 288.549 348.245Z" fill="#1E705A"/>
<path d="M253.237 335.525C251.609 333.86 249.052 334.493 246.352 333.752C243.266 332.842 240.126 332.125 236.951 331.607C235.262 331.386 233.553 331.365 231.859 331.545C231.013 331.644 229.931 331.654 229.385 332.411C228.817 333.2 229.406 333.938 229.983 334.493C231.683 336.064 233.634 337.34 235.755 338.267C244.14 342.19 246.818 343.635 249.569 344.101C251.794 344.477 253.001 343.067 253.651 341.112C254.239 339.335 254.717 337.034 253.237 335.525Z" fill="#1E705A"/>
<path d="M279.496 249.108C278.786 243.422 274.106 238.639 269.643 235.068C268.668 234.288 266.889 233.001 266.591 231.338C266.577 230.882 266.472 230.433 266.283 230.018C266.252 229.967 266.21 229.923 266.159 229.89C266.109 229.858 266.052 229.837 265.993 229.829C265.933 229.821 265.873 229.826 265.816 229.845C265.759 229.864 265.706 229.895 265.663 229.936C264.317 231.145 266.053 233.584 266.983 234.513C269.307 236.837 276.043 240.673 279.003 249.253C279.085 249.606 279.541 249.457 279.496 249.108Z" fill="#1E705A"/>
<path d="M257.833 224.304C257.75 221.704 258.317 219.125 259.483 216.799C259.773 216.265 260.204 215.871 259.997 215.239C259.974 215.179 259.935 215.126 259.884 215.086C259.833 215.046 259.773 215.02 259.709 215.011C258.946 215.095 258.763 215.734 258.451 216.393C257.177 218.846 256.765 221.656 257.281 224.371C257.299 224.436 257.339 224.493 257.395 224.53C257.451 224.568 257.519 224.585 257.586 224.577C257.653 224.568 257.715 224.537 257.76 224.487C257.805 224.437 257.831 224.372 257.833 224.304Z" fill="#1E705A"/>
<path d="M260.86 224.389C262.695 219.307 264.76 218.563 265.066 217.153C265.083 217.09 265.083 217.024 265.067 216.961C265.05 216.898 265.017 216.84 264.971 216.794C264.925 216.748 264.867 216.715 264.804 216.698C264.741 216.681 264.675 216.681 264.612 216.698C263.313 217.008 262.377 218.715 261.747 219.791C260.951 221.154 260.407 222.649 260.139 224.204C260.114 224.3 260.129 224.401 260.179 224.486C260.229 224.571 260.311 224.633 260.407 224.657C260.502 224.682 260.604 224.667 260.689 224.617C260.774 224.567 260.836 224.485 260.86 224.389Z" fill="#1E705A"/>
<path d="M327.889 252.2C323.959 250.367 319.209 251.498 315.147 252.59C315.235 249.449 314.666 246.324 313.478 243.415C313.334 243.043 312.653 243.045 312.714 243.519C313.234 245.965 313.613 248.439 313.849 250.929C312.747 250.773 311.091 255.905 310.838 257.155C310.694 257.974 310.591 258.8 310.53 259.63C310.319 260.897 310.202 262.179 310.179 263.463C310.182 263.611 310.239 263.752 310.337 263.863C310.436 263.973 310.57 264.044 310.717 264.064C310.863 264.084 311.012 264.051 311.136 263.971C311.26 263.892 311.352 263.77 311.396 263.629C311.756 261.603 312.003 259.559 312.137 257.506C312.495 255.931 313.049 254.407 313.786 252.97C313.767 253.156 313.765 253.321 313.745 253.507C313.747 253.612 313.772 253.715 313.819 253.808C313.866 253.902 313.934 253.984 314.017 254.047C314.101 254.111 314.198 254.155 314.301 254.175C314.403 254.196 314.51 254.192 314.611 254.166C319.609 252.853 322.696 252.112 327.352 253.485C328.095 253.7 328.632 252.547 327.889 252.2Z" fill="#1E705A"/>
<path d="M326.11 254.159C324.064 262.647 331.681 270.652 334.151 279.372C335.996 285.887 336.177 290.786 340.541 296.029C341.918 297.447 343.004 299.121 343.738 300.957C344.536 304.235 344.71 307.633 344.252 310.976C344.253 311.045 344.275 311.112 344.313 311.169C344.352 311.226 344.407 311.27 344.47 311.296C344.534 311.323 344.604 311.33 344.672 311.317C344.739 311.304 344.802 311.272 344.851 311.224C346.386 309.759 346.066 305.221 345.758 303.121C344.937 297.562 342.54 296.612 340.356 293.328C337.008 288.299 336.883 281.628 334.481 275.683C331.242 267.664 326.751 263.449 326.893 254.233C326.882 254.142 326.84 254.058 326.774 253.994C326.708 253.931 326.622 253.891 326.531 253.883C326.44 253.874 326.349 253.897 326.272 253.947C326.195 253.997 326.138 254.072 326.11 254.159Z" fill="#1E705A"/>
<path d="M315.08 254.259C313.413 260.082 318.176 269.836 320.93 274.978C327.25 286.76 329.796 288.809 331.052 292.068C332.63 296.163 330.44 304.144 332.123 308.169C332.171 308.313 332.273 308.433 332.407 308.505C332.541 308.577 332.697 308.595 332.844 308.556C332.991 308.517 333.118 308.423 333.198 308.294C333.279 308.165 333.307 308.01 333.277 307.861C332.368 303.066 333.515 297.21 332.928 293.513C332.534 291.634 331.754 289.858 330.639 288.296C324.373 278.56 315.485 265.286 315.961 254.341C315.988 253.848 315.222 253.764 315.08 254.259Z" fill="#1E705A"/>
<path d="M336.069 302.15C336.641 304.973 336.584 307.887 335.904 310.685C335.586 311.528 335.425 312.422 335.43 313.323C335.432 313.384 335.452 313.444 335.486 313.494C335.521 313.544 335.569 313.584 335.625 313.608C335.682 313.632 335.744 313.639 335.804 313.629C335.864 313.619 335.921 313.592 335.966 313.551C337.343 312.393 337.466 309.798 337.594 308.109C337.745 306.024 337.521 303.93 336.935 301.924C336.899 301.816 336.823 301.726 336.723 301.672C336.623 301.618 336.507 301.604 336.397 301.633C336.287 301.661 336.192 301.731 336.131 301.827C336.07 301.923 336.048 302.038 336.069 302.15Z" fill="#1E705A"/>
<path d="M339.537 303.589C340.142 306.176 340.114 308.87 339.455 311.444C339.186 312.144 339.025 312.881 338.979 313.63C338.985 313.701 339.011 313.77 339.053 313.828C339.095 313.885 339.152 313.931 339.218 313.958C339.284 313.986 339.356 313.995 339.427 313.984C339.498 313.973 339.564 313.943 339.619 313.897C340.687 312.482 341.233 310.742 341.165 308.971C341.32 307.072 341.045 305.163 340.362 303.385C340.332 303.278 340.262 303.187 340.167 303.131C340.071 303.075 339.957 303.059 339.85 303.086C339.743 303.112 339.65 303.18 339.591 303.274C339.533 303.368 339.513 303.481 339.537 303.589Z" fill="#1E705A"/>
<path d="M341.966 303.076C342.238 305.099 342.28 307.146 342.091 309.178C341.861 310.601 341.003 312.393 341.701 313.776C341.728 313.823 341.767 313.862 341.814 313.889C341.861 313.916 341.915 313.93 341.969 313.93C342.023 313.93 342.077 313.916 342.124 313.889C342.171 313.862 342.21 313.823 342.237 313.776C342.534 312.964 342.735 312.119 342.834 311.26C343.562 308.539 343.512 305.668 342.69 302.973C342.663 302.889 342.608 302.818 342.534 302.772C342.459 302.725 342.371 302.706 342.284 302.719C342.197 302.731 342.118 302.774 342.06 302.839C342.001 302.905 341.968 302.989 341.966 303.076Z" fill="#1E705A"/>
<path d="M277.889 243.17C278.494 243.95 279.972 244.036 280.857 244.366C281.848 244.736 283.024 245.629 284.116 245.563C284.185 245.563 284.254 245.544 284.314 245.509C284.374 245.473 284.424 245.422 284.457 245.361C284.491 245.3 284.508 245.231 284.505 245.161C284.503 245.091 284.482 245.023 284.445 244.964C283.93 243.933 282.386 243.496 281.374 243.129C280.448 242.794 278.878 242.119 277.93 242.675C277.893 242.703 277.862 242.739 277.84 242.78C277.817 242.821 277.804 242.867 277.8 242.913C277.796 242.96 277.802 243.007 277.817 243.051C277.833 243.095 277.857 243.136 277.889 243.17Z" fill="#1E705A"/>
<path d="M279.889 275.821C278.941 273.167 277.087 270.932 274.654 269.511C273.267 268.705 271.666 268.342 270.067 268.471C268.468 268.6 266.947 269.214 265.707 270.232C262.977 272.832 262.642 276.706 262.587 280.253C262.598 284.112 262.832 287.966 263.289 291.797C263.289 292.082 264.402 297.474 264.876 299.402C267.405 310.651 270.959 321.644 275.492 332.244C278.651 330.635 282.153 329.814 285.698 329.852C285.671 316.506 283.694 287.073 279.889 275.821Z" fill="#075e54"/>
<path d="M313.764 257.932C309.985 254.669 305.567 252.232 300.792 250.776C296.017 249.321 290.991 248.879 286.035 249.478L285.354 249.685C284.282 251.953 283.209 254.24 282.139 256.51C288.248 257.19 294.114 259.286 299.269 262.633C299.925 263.054 300.726 263.452 301.042 264.179C301.151 264.425 301.022 264.78 300.712 264.765C299.172 264.653 298.189 262.68 291.352 260.044C284.586 257.434 280.779 257.737 280.653 256.972C271.989 256.613 269.362 256.352 266.427 256.725C257.832 257.819 250.697 264.456 246.964 272.27C243.232 280.084 242.413 288.948 242.183 297.62C241.902 308.318 242.447 319.022 243.811 329.637L244.307 330.07C247.832 329.408 251.429 329.208 255.006 329.473C255.129 316.155 258.737 305.098 262.407 290.508C261.965 288.488 261.717 286.431 261.666 284.364C261.354 278.383 261.055 271.127 266.303 268.058C267.798 267.313 269.462 266.966 271.131 267.053C272.8 267.14 274.418 267.657 275.828 268.553C280.508 271.562 282.008 276.256 282.548 281.829C288.704 283.702 295.261 283.809 301.475 282.139C312.153 278.214 313.928 265.373 313.764 257.932Z" fill="#128c7e"/>
<path d="M329.264 246.241C328.474 236.363 325.46 227.112 316.729 222.41C316.669 216.529 315.992 210.669 314.709 204.929C313.686 200.35 312.564 194.888 309.226 191.341C309.846 190.865 310.323 190.227 310.603 189.497C310.883 188.767 310.956 187.974 310.813 187.205C310.58 186.165 310.071 185.206 309.34 184.43C308.609 183.654 307.683 183.089 306.659 182.794C305.634 182.499 304.549 182.485 303.517 182.753C302.486 183.021 301.545 183.562 300.794 184.319C300.204 184.809 299.767 185.458 299.537 186.19C299.307 186.921 299.292 187.704 299.495 188.443C297.403 188.782 295.461 189.741 293.921 191.196C292.381 192.652 291.313 194.537 290.857 196.606C290.535 198.316 290.794 198.102 291.66 199.336C289.693 202.261 287.409 216.634 287.641 219.499C287.644 219.601 287.683 219.699 287.75 219.775C287.818 219.852 287.911 219.901 288.012 219.916C288.113 219.931 288.216 219.909 288.302 219.856C288.389 219.802 288.454 219.719 288.486 219.622C289.141 217.157 288.901 215.814 290.28 208.53C290.564 207.025 290.876 205.521 291.227 204.045C291.141 205.087 291.113 206.134 291.145 207.179C291.301 211.711 293.154 217.561 297.66 217.26C297.919 218.627 297.947 220.028 297.742 221.404C297.462 221.207 297.194 220.993 296.939 220.765C296.87 220.706 296.783 220.674 296.693 220.673C296.603 220.671 296.515 220.701 296.445 220.757C296.374 220.813 296.325 220.892 296.306 220.98C296.287 221.068 296.299 221.16 296.34 221.24C297.105 222.497 298.314 223.419 299.728 223.823C301.141 224.228 302.655 224.086 303.969 223.424C303.988 223.405 304.01 223.405 304.029 223.383C304.029 225.445 303.973 227.527 303.928 229.569C303.932 229.742 303.998 229.908 304.114 230.036C304.23 230.165 304.388 230.248 304.559 230.27C304.731 230.293 304.905 230.253 305.05 230.158C305.195 230.064 305.301 229.92 305.349 229.754C306.184 226.884 305.804 227.609 305.804 221.219C307.736 221.398 309.648 221.757 311.513 222.291C312.9 222.523 314.242 222.968 315.493 223.61C315.592 223.677 315.708 223.716 315.828 223.724C315.947 223.732 316.067 223.707 316.174 223.653C317.501 224.52 318.742 225.514 319.879 226.62C328.459 235.062 327.168 247.875 328 250.721C328.034 250.825 328.1 250.917 328.189 250.982C328.277 251.047 328.385 251.082 328.495 251.082C328.605 251.082 328.712 251.047 328.801 250.982C328.89 250.917 328.956 250.825 328.989 250.721C329.423 249.268 329.518 247.736 329.264 246.241ZM300.209 193.32C301.18 194.24 301.952 195.349 302.477 196.579C303.11 197.615 303.357 198.841 303.177 200.042C303.097 200.27 302.764 200.432 302.578 200.208C302.023 199.226 301.593 198.177 301.301 197.088C300.766 195.992 300.138 194.944 299.425 193.954C299.078 193.428 299.803 192.95 300.217 193.32H300.209ZM296.134 215.48C295.162 214.883 294.393 214.006 293.928 212.965C292.543 209.638 292.137 205.984 292.758 202.435C292.817 202.454 292.873 202.482 292.924 202.518C293.15 202.641 293.398 202.745 293.624 202.867C294.264 203.218 294.819 202.232 294.182 201.892C293.788 201.654 293.355 201.487 292.902 201.399C293.049 200.673 293.125 199.934 293.131 199.194C294.215 197.67 295.622 196.404 297.253 195.489C300.196 199.902 302.209 204.868 303.169 210.084C302.717 210.744 302.506 211.566 302.077 212.249C300.745 214.357 298.312 216.611 296.134 215.48ZM303.844 221.788C303.099 222.257 302.243 222.521 301.364 222.553C300.484 222.586 299.612 222.386 298.834 221.974C299.452 221.5 299.39 220.414 299.371 219.684C299.337 218.775 299.135 217.881 298.774 217.046C300.824 216.216 302.522 214.7 303.577 212.756C303.938 215.697 304.123 218.657 304.132 221.621C304.029 221.665 303.932 221.723 303.844 221.792V221.788ZM305.926 208.448C304.994 208.281 305.377 209.749 305.164 207.193C305.068 206.678 305.027 206.155 305.041 205.633C305.047 205.535 305.061 205.439 305.082 205.344C305.333 205.11 305.649 204.959 305.989 204.911C306.323 204.852 306.668 204.886 306.984 205.01C307.3 205.133 307.577 205.341 307.783 205.611C308.001 205.909 308.123 206.266 308.133 206.635C308.144 207.004 308.041 207.368 307.839 207.677C307.638 207.987 307.347 208.227 307.005 208.367C306.663 208.507 306.287 208.539 305.926 208.46V208.448Z" fill="#1E705A"/>
<path d="M272.37 197.711C273.43 193.384 274.948 188.372 276.061 183.714C277.481 183.772 296.76 184.539 298.16 184.539C298.259 184.391 298.316 184.221 298.327 184.044C298.338 183.867 298.302 183.691 298.223 183.532C298.144 183.374 298.024 183.239 297.876 183.142C297.728 183.045 297.557 182.988 297.38 182.979C295.752 182.904 281.195 182.345 275.54 182.093C275.337 182.072 275.133 182.128 274.968 182.25C274.804 182.372 274.692 182.551 274.653 182.752C273.818 186.218 270.88 198.214 270.242 200.77C270.886 201.938 271.553 201.049 272.37 197.711Z" fill="#1E705A"/>
<path d="M378.352 189.302C362.033 186.527 331.316 184.355 312.588 183.59C312.455 183.586 312.324 183.617 312.207 183.68C312.089 183.742 311.99 183.834 311.92 183.947C311.849 184.059 311.808 184.188 311.802 184.321C311.797 184.453 311.826 184.585 311.886 184.704V184.725C311.95 184.836 312.04 184.929 312.148 184.997C312.256 185.065 312.379 185.106 312.506 185.115C313.727 185.195 332.981 185.86 354.295 187.857C358.314 188.233 374.255 189.974 378.188 190.392C378.329 190.406 378.47 190.365 378.582 190.278C378.693 190.191 378.767 190.065 378.788 189.925C378.809 189.785 378.776 189.642 378.695 189.526C378.613 189.41 378.491 189.33 378.352 189.302Z" fill="#1E705A"/>
<path d="M336.483 268.173C338.59 268.651 341.416 268.928 344.71 269.638C345.386 269.92 346.144 269.934 346.831 269.679C346.924 269.624 346.991 269.535 347.018 269.431C347.045 269.327 347.03 269.216 346.975 269.123C346.486 268.433 345.718 268.361 344.914 268.195C342.199 267.558 339.415 267.26 336.627 267.308C336.519 267.304 336.414 267.339 336.331 267.407C336.248 267.475 336.193 267.571 336.175 267.677C336.157 267.783 336.179 267.892 336.235 267.983C336.292 268.075 336.38 268.142 336.483 268.173Z" fill="#1E705A"/>
<path d="M352.271 258.858C351.713 258.345 351.372 258.297 347.757 257.688C346.54 257.482 345.323 257.296 344.106 257.132C345.118 255.563 346.078 254.059 346.602 253.215C346.871 252.782 346.167 252.201 345.822 252.63C344.699 254.036 343.629 255.471 342.595 256.93C339.354 256.492 336.082 256.336 332.814 256.464C332.28 256.493 332.073 257.351 332.67 257.439C335.62 257.85 338.605 258.057 341.575 258.396C337.87 263.805 337.664 264.063 337.412 264.942C337.377 265.081 337.388 265.226 337.443 265.358C337.499 265.489 337.595 265.6 337.718 265.672C337.841 265.744 337.984 265.774 338.126 265.758C338.268 265.742 338.4 265.68 338.504 265.582C339.301 264.706 339.98 263.729 340.524 262.676C340.852 262.171 341.959 260.467 343.168 258.591C350.664 259.566 350.886 260.18 352.029 259.81C352.122 259.779 352.205 259.725 352.271 259.653C352.337 259.581 352.385 259.494 352.409 259.4C352.433 259.305 352.433 259.206 352.409 259.112C352.385 259.017 352.337 258.93 352.271 258.858Z" fill="#1E705A"/>
<path d="M259.808 251.724C258.887 252.05 258.018 252.51 257.23 253.089C256.326 253.627 254.027 255.023 253.775 255.177C251.079 254.584 248.299 254.469 245.564 254.84C245.456 254.863 245.36 254.924 245.295 255.013C245.23 255.101 245.199 255.211 245.209 255.32C245.22 255.43 245.27 255.532 245.35 255.607C245.43 255.682 245.536 255.725 245.645 255.727C247.82 255.983 249.53 256.03 251.8 256.425C249.019 258.212 246.441 259.908 243.805 261.841C241.27 261.655 237.541 260.725 234.881 261.437C234.774 261.46 234.678 261.521 234.613 261.609C234.548 261.698 234.517 261.807 234.527 261.917C234.537 262.027 234.587 262.129 234.668 262.204C234.748 262.279 234.853 262.322 234.963 262.324C238.278 262.714 237.793 262.461 242.022 263.182C241.297 263.741 240.582 264.314 239.877 264.9C239.571 265.154 239.981 265.664 240.33 265.458C241.443 264.793 242.541 264.103 243.627 263.397C244.253 263.457 244.884 263.437 245.505 263.334C245.635 263.297 245.75 263.221 245.836 263.116C245.922 263.012 245.974 262.883 245.985 262.749C245.996 262.614 245.966 262.479 245.899 262.362C245.832 262.245 245.73 262.151 245.608 262.092C248.884 259.912 250.22 258.982 253.834 256.751C254.613 256.862 255.405 256.857 256.183 256.737C256.321 256.697 256.442 256.612 256.529 256.497C256.615 256.382 256.661 256.242 256.661 256.098C256.661 255.954 256.615 255.814 256.529 255.699C256.442 255.583 256.321 255.499 256.183 255.458L256.008 255.419C259.344 253.393 259.713 253.405 260.368 252.676C260.456 252.586 260.513 252.47 260.528 252.345C260.544 252.22 260.517 252.093 260.454 251.985C260.39 251.876 260.292 251.792 260.175 251.745C260.059 251.698 259.93 251.69 259.808 251.724Z" fill="#1E705A"/>
<path d="M343.902 279.984C342.709 279.23 341.335 278.81 339.924 278.768C339.058 278.723 338.851 280.154 339.717 280.295C340.376 280.4 341.014 280.464 341.656 280.603C342.248 280.804 342.866 280.922 343.491 280.954C343.6 280.948 343.706 280.912 343.796 280.849C343.886 280.786 343.957 280.699 344 280.598C344.043 280.497 344.056 280.386 344.039 280.277C344.022 280.169 343.974 280.067 343.902 279.984Z" fill="#1E705A"/>
<path d="M329.225 294.189C327.749 291.381 326.618 288.33 324.957 285.635C324.487 284.87 323.886 284.892 323.061 284.831C313.653 284.141 309.558 282.055 306.403 282.563C303.977 282.953 303.033 284.465 297.682 284.976C293.635 285.208 289.575 285.132 285.54 284.747C284.984 284.708 284.51 288.665 285.21 288.768C291.973 289.761 299.334 291.134 306.075 292.278C313.354 293.509 320.718 294.228 327.888 295.97C328.117 296.022 328.357 296.007 328.579 295.927C328.8 295.846 328.993 295.702 329.135 295.514C329.276 295.326 329.36 295.1 329.376 294.865C329.392 294.63 329.34 294.395 329.225 294.189Z" fill="#1E705A"/>
<path d="M259.049 243.559C255.588 245.088 242.496 251.273 239.354 252.712C232.315 255.758 225.453 259.2 218.801 263.02C217.532 263.786 216.071 264.408 215.543 265.886C215.142 267.303 214.828 268.743 214.601 270.198C214.49 271.134 214.609 272.084 214.949 272.964C215.289 273.844 215.839 274.628 216.551 275.246C218.454 276.577 220.673 277.384 222.986 277.586C223.337 277.649 235.439 279.936 241.148 280.987C241.252 280.451 241.355 279.936 241.478 279.427H241.458C242.029 278.011 242.524 276.566 242.942 275.098C242.971 275.097 242.999 275.104 243.024 275.118C243.209 274.533 243.395 273.985 243.609 273.427C242.609 273.265 219.152 269.084 218.273 268.768C218.043 268.677 217.834 268.54 217.659 268.365C217.484 268.191 217.347 267.982 217.256 267.752C217.164 267.522 217.121 267.276 217.128 267.029C217.136 266.782 217.193 266.539 217.298 266.315C217.606 265.672 218.345 265.364 218.967 264.995C234.204 255.965 249.178 251.019 259.601 244.503C260.137 244.177 259.623 243.307 259.049 243.559Z" fill="#1E705A"/>
<path d="M345.988 297.02C348.44 296.171 350.509 294.475 351.822 292.237C358.437 281.174 363.599 269.305 367.181 256.922C368.631 253.658 367.034 250.563 365.408 250.717C364.743 250.988 364.16 251.429 363.717 251.995C345.557 289.164 351.659 276.175 348.234 282.898C346.552 286.213 345.163 288.011 341.577 288.011C341.994 289.45 345.549 295.848 345.988 297.02Z" fill="#1E705A"/>
<path d="M161.782 239.89C161.661 238.135 161.433 234.873 158.874 235.231C157.804 235.382 156.835 236.509 155.741 236.345C154.468 235.775 153.053 235.602 151.681 235.85C150.225 236.148 148.797 236.569 147.412 237.107C147.749 237.343 148.048 237.627 148.299 237.952C149.705 239.804 148.884 240.695 148.504 240.467C147.97 240.077 147.941 239.223 147.578 238.673C147.224 238.188 146.765 237.788 146.236 237.503C145.907 237.607 145.577 237.729 145.248 237.833L143.764 238.203C144.132 238.464 144.431 238.81 144.635 239.212C144.839 239.615 144.941 240.061 144.934 240.512C144.85 240.966 144.218 240.962 144.007 240.637C143.896 240.207 143.701 239.804 143.433 239.45C143.165 239.096 142.83 238.798 142.447 238.574C140.026 239.269 137.662 240.152 135.377 241.214C133.807 242.115 132.473 244.529 134.263 245.935C135.313 246.47 136.489 246.706 137.664 246.615C143.829 247.136 150.023 247.211 156.199 246.842C157.599 246.95 159.006 246.751 160.321 246.257C162.205 245.151 161.908 241.725 161.782 239.89Z" fill="#1E705A"/>
<path d="M244.987 237.769C244.034 236.829 242.844 236.166 241.543 235.852C239.515 235.121 237.45 234.495 235.358 233.976C233.852 235.481 234.523 236.316 233.915 237.232C233.893 237.268 233.863 237.298 233.828 237.32C233.793 237.343 233.754 237.358 233.713 237.364C233.672 237.37 233.63 237.367 233.59 237.355C233.55 237.343 233.513 237.322 233.482 237.295C232.714 236.423 233.591 234.588 234.41 233.769C234.266 233.728 234.1 233.709 233.956 233.666C233.295 233.471 232.638 233.254 231.976 233.048C231.755 233.231 231.549 233.431 231.358 233.646C231.011 234.124 230.797 234.686 230.74 235.275C230.738 235.354 230.718 235.431 230.682 235.502C230.645 235.572 230.594 235.634 230.53 235.681C230.467 235.729 230.393 235.762 230.316 235.777C230.238 235.792 230.158 235.79 230.081 235.77C229.973 235.737 229.877 235.672 229.808 235.584C229.738 235.495 229.697 235.387 229.691 235.275C229.726 234.308 230.132 233.393 230.824 232.718C229.958 232.47 229.094 232.219 228.207 232.018C224.247 231.113 223.88 232.451 222.747 232.451C221.69 232.451 220.452 230.86 218.81 231.542C218.37 231.777 217.999 232.124 217.735 232.547C217.471 232.97 217.322 233.456 217.305 233.954C217.096 235.325 217.034 236.714 217.119 238.098C217.281 240.982 217.589 242.723 220.46 242.903C228.059 243.234 235.673 242.917 243.218 241.953C243.689 241.943 244.148 241.8 244.541 241.541C244.935 241.283 245.248 240.919 245.445 240.491C245.611 240.036 245.655 239.546 245.575 239.069C245.495 238.592 245.292 238.144 244.987 237.769Z" fill="#1E705A"/>
<path d="M130.759 237.622C132.161 237.037 142.695 232.716 146.572 231.129C146.469 230.715 146.344 230.283 146.24 229.871C143.664 230.944 133.175 235.232 130.512 236.324C130.574 236.757 130.657 237.189 130.759 237.622Z" fill="#1E705A"/>
<path d="M116.385 260.791C114.117 260.421 93.5855 256.848 91.5224 256.484C91.0485 256.4 90.4109 256.419 90.1574 255.988C89.9039 255.557 90.2178 255.243 90.5688 254.875C91.7018 253.691 92.8406 253.289 109.845 246.279C109.659 245.846 109.474 245.433 109.289 245C90.3017 252.857 91.1207 252.605 90.1164 253.412C89.1414 254.192 88.0826 255.511 88.8177 256.792C89.3657 257.749 90.3777 257.722 93.5582 258.297C95.6642 258.687 111.371 261.417 117.122 262.337C116.858 261.823 116.612 261.307 116.385 260.791Z" fill="#1E705A"/>
<path d="M128.922 232.9C134.382 230.673 139.889 228.489 145.394 226.365C145.291 225.975 145.168 225.585 145.065 225.195C140.817 226.804 129.892 231.133 128.653 231.63C128.737 232.052 128.819 232.488 128.922 232.9Z" fill="#1E705A"/>
<path d="M215.527 240.611C203.437 249.088 191.686 256.857 179.118 264.382C173.087 267.993 173.596 268.153 168.935 267.697C136.476 264.544 136.788 263.27 137.166 264.212C137.269 264.602 137.33 265.018 137.455 265.409C141.206 265.924 165.41 268.849 167.533 269.077C169.459 269.464 171.436 269.53 173.383 269.272C175.015 268.692 176.551 267.872 177.941 266.839C191.144 259.008 204.347 250.316 215.915 242.243C215.723 241.716 215.592 241.169 215.527 240.611Z" fill="#1E705A"/>
<path d="M231.525 230.984C232.721 230.056 233.889 229.098 235.07 228.139C235.583 227.724 234.907 226.84 234.37 227.211C232.785 228.307 231.196 229.397 229.628 230.51C229.901 230.569 231.371 230.906 231.525 230.984Z" fill="#1E705A"/>
<path d="M220.103 244.774C216.289 247.66 168.553 282.639 160.893 288.15C159.348 289.236 157.709 290.181 155.995 290.974C150.859 293.411 149.008 292.395 140.98 290.954C99.4937 283.495 53.7642 273.467 52.8048 272.874C52.5793 272.714 52.3903 272.508 52.2505 272.269C52.1107 272.031 52.0233 271.765 51.9939 271.49C51.9646 271.215 51.9941 270.937 52.0805 270.674C52.1668 270.412 52.308 270.17 52.4948 269.966C53.975 268.11 55.876 266.633 58.0406 265.657C67.6872 260.522 90.2702 249.472 108.22 241.66C108.035 241.249 107.871 240.857 107.684 240.445C94.9677 246.009 83.0552 251.531 69.8537 258.091C67.7964 259.115 57.048 264.481 55.0512 265.801C53.1269 266.839 51.5928 268.475 50.6813 270.462C50.5658 270.876 50.5341 271.309 50.5881 271.736C50.642 272.162 50.7806 272.574 50.9956 272.946C51.2106 273.319 51.4977 273.645 51.8402 273.905C52.1827 274.165 52.5736 274.354 52.9901 274.461C56.9505 275.645 135.744 292.155 148.71 293.766C150.918 294.08 153.17 293.788 155.225 292.922C158.963 291.187 162.473 288.999 165.677 286.407C184.744 272.377 203.795 259.302 222.422 245.051C221.69 244.96 220.887 244.897 220.103 244.774Z" fill="#1E705A"/>
<path d="M38.3137 219.291C37.4732 214.18 36.5977 209.061 35.9015 203.913C35.8984 203.846 35.8808 203.781 35.8499 203.721C35.819 203.662 35.7755 203.609 35.7225 203.568C35.6695 203.527 35.6082 203.498 35.5428 203.483C35.4774 203.468 35.4095 203.467 35.3438 203.48C34.5638 203.605 33.7838 203.769 33.0038 203.913C28.9162 203.866 24.8583 204.613 21.0562 206.115C20.9609 206.146 20.878 206.207 20.8189 206.288C20.7598 206.369 20.7276 206.467 20.7266 206.567C20.722 211.634 21.1132 216.693 21.8966 221.699C21.9303 221.821 22.0108 221.924 22.1205 221.986C22.2302 222.048 22.3601 222.064 22.4816 222.031C36.9623 219.193 38.5106 220.494 38.3137 219.291Z" fill="#128c7e"/>
<path d="M82.9055 64.8026C82.4278 64.6486 81.9305 64.4731 81.4606 64.3073C79.1592 63.0192 76.634 62.1801 74.0194 61.8347C73.9229 61.8114 73.8216 61.8186 73.7294 61.8552C73.6372 61.8919 73.5587 61.9563 73.5046 62.0395C71.9027 64.9081 70.5503 67.9092 69.4622 71.0094C69.1385 71.9454 71.2309 71.4736 79.1518 75.1337C80.0429 75.5451 79.6276 74.5897 83.2468 65.3408C83.2575 65.226 83.2299 65.1108 83.1681 65.0134C83.1063 64.916 83.014 64.8418 82.9055 64.8026Z" fill="#1E705A"/>
<path d="M49.1593 94.5503C45.4231 96.4535 34.3549 102.389 30.6869 105.002L30.6655 104.981C30.2326 104.61 29.591 105.252 30.0278 105.62C35.7696 110.372 42.0866 114.382 48.8297 117.556C48.8959 117.594 48.9706 117.614 49.0468 117.614C49.1229 117.615 49.1979 117.595 49.2643 117.558C49.3306 117.521 49.3862 117.467 49.4256 117.401C49.4649 117.336 49.4867 117.262 49.4888 117.186C49.5395 109.764 49.7462 102.342 49.7989 94.9422C49.8003 94.8664 49.782 94.7916 49.7455 94.7251C49.7091 94.6586 49.656 94.6027 49.5913 94.5631C49.5267 94.5235 49.4528 94.5015 49.377 94.4992C49.3012 94.497 49.2262 94.5146 49.1593 94.5503Z" fill="#128c7e"/>
<path d="M137.911 140.027C137.234 140.348 136.644 140.826 136.188 141.421C135.732 142.015 135.424 142.71 135.289 143.447C135.154 144.184 135.197 144.942 135.412 145.66C135.628 146.377 136.011 147.033 136.53 147.573C137.026 148.355 137.769 148.95 138.641 149.263C139.512 149.575 140.464 149.588 141.344 149.3C142.224 149.011 142.982 148.437 143.5 147.669C144.017 146.901 144.263 145.982 144.2 145.058C144.127 141.78 141.353 138.601 137.911 140.027Z" fill="#128c7e"/>
<path d="M271.845 231.857C272.072 231.871 272.3 231.83 272.508 231.737C272.716 231.644 272.898 231.502 273.038 231.322C273.179 231.143 273.274 230.932 273.315 230.708C273.356 230.484 273.342 230.253 273.274 230.036L267.624 208.022C267.547 207.715 267.372 207.441 267.126 207.242C266.88 207.043 266.576 206.929 266.259 206.918L253.985 206.333C253.752 206.329 253.522 206.379 253.312 206.478C253.102 206.578 252.918 206.724 252.773 206.906C252.629 207.088 252.528 207.301 252.479 207.529C252.43 207.756 252.434 207.991 252.491 208.217L255.022 216.659C254.652 216.364 254.355 215.988 254.152 215.561C253.95 215.133 253.848 214.665 253.854 214.191C253.918 213.802 253.279 213.739 253.204 214.127C252.802 216.215 254.633 217.829 256.322 218.673C258.25 219.637 261.006 220.223 264.44 219.842C265.063 219.806 265.677 219.675 266.261 219.452C266.342 219.428 266.413 219.377 266.461 219.307C266.509 219.237 266.531 219.152 266.523 219.068C266.516 218.983 266.479 218.904 266.419 218.844C266.359 218.783 266.28 218.746 266.196 218.737C265.757 218.737 263.58 218.878 263.143 218.932C261.173 219.062 259.198 218.751 257.363 218.022C257.041 217.888 256.648 217.697 256.324 217.567L253.465 207.957C253.444 207.881 253.439 207.801 253.45 207.723C253.461 207.645 253.489 207.57 253.53 207.502C253.579 207.446 253.638 207.399 253.705 207.365C253.772 207.332 253.845 207.312 253.92 207.307L266.195 207.892C266.304 207.895 266.408 207.935 266.491 208.006C266.574 208.077 266.63 208.174 266.649 208.282L272.299 230.363C272.32 230.439 272.326 230.519 272.315 230.597C272.303 230.675 272.276 230.75 272.234 230.817C272.186 230.874 272.126 230.92 272.059 230.954C271.992 230.987 271.919 231.007 271.845 231.012L260.025 230.492C259.925 230.491 259.828 230.459 259.746 230.401C259.665 230.343 259.604 230.262 259.57 230.168L259.116 228.609C260.666 228.993 262.274 229.082 263.856 228.869C264.186 228.835 264.513 228.77 264.831 228.674C265.186 228.642 265.525 228.507 265.805 228.284C265.853 228.235 265.888 228.173 265.905 228.106C265.921 228.039 265.92 227.968 265.9 227.902C265.88 227.835 265.842 227.776 265.791 227.729C265.74 227.682 265.678 227.649 265.61 227.635C265.28 227.61 264.948 227.654 264.636 227.765C264.36 227.837 264.077 227.88 263.791 227.895C263.166 227.97 262.538 228.014 261.908 228.024C260.657 228.018 259.411 227.843 258.206 227.505C258.113 227.484 258.015 227.499 257.933 227.548C257.851 227.598 257.792 227.676 257.766 227.769C257.741 227.861 257.753 227.959 257.798 228.043C257.844 228.127 257.92 228.19 258.011 228.219L258.661 230.362C258.785 230.686 259.014 230.96 259.31 231.141C259.714 231.398 258.902 231.574 271.845 231.857Z" fill="#128c7e"/>
<path d="M258.012 211.529C258.012 211.839 258.135 212.136 258.354 212.355C258.573 212.575 258.871 212.698 259.181 212.698C259.491 212.698 259.788 212.575 260.008 212.355C260.227 212.136 260.35 211.839 260.35 211.529C260.35 211.218 260.227 210.921 260.008 210.702C259.788 210.483 259.491 210.359 259.181 210.359C258.871 210.359 258.573 210.483 258.354 210.702C258.135 210.921 258.012 211.218 258.012 211.529Z" fill="#128c7e"/>
<path d="M256.192 213.671C256.192 213.981 256.316 214.279 256.535 214.498C256.754 214.717 257.052 214.84 257.362 214.84C257.672 214.84 257.969 214.717 258.188 214.498C258.408 214.279 258.531 213.981 258.531 213.671C258.531 213.361 258.408 213.064 258.188 212.844C257.969 212.625 257.672 212.502 257.362 212.502C257.052 212.502 256.754 212.625 256.535 212.844C256.316 213.064 256.192 213.361 256.192 213.671Z" fill="#128c7e"/>
<path d="M255.153 210.555C255.153 210.865 255.277 211.162 255.496 211.382C255.715 211.601 256.012 211.724 256.323 211.724C256.633 211.724 256.93 211.601 257.149 211.382C257.369 211.162 257.492 210.865 257.492 210.555C257.492 210.245 257.369 209.947 257.149 209.728C256.93 209.509 256.633 209.386 256.323 209.386C256.012 209.386 255.715 209.509 255.496 209.728C255.277 209.947 255.153 210.245 255.153 210.555Z" fill="#128c7e"/>
<path d="M347.321 104.779C343.121 102.219 354.325 101.21 378.708 104.966C378.708 104.966 358.63 114.237 346.195 123.01C345.978 123.164 345.729 123.268 345.466 123.314C345.202 123.36 344.932 123.346 344.674 123.274C344.417 123.203 344.18 123.075 343.98 122.9C343.781 122.725 343.625 122.508 343.524 122.265L340.386 114.772L336.97 115.265C336.839 115.283 336.706 115.265 336.584 115.214C336.463 115.163 336.358 115.08 336.282 114.975C336.205 114.87 336.159 114.746 336.149 114.617C336.139 114.488 336.165 114.358 336.225 114.243L338.479 109.91C338.478 109.928 349.279 105.971 347.321 104.779Z" fill="#1E705A"/>
<path d="M335.457 102.23C336.46 99.2052 340.309 99.1461 342.944 98.7574C353.3 97.3637 363.838 98.3815 373.735 101.731C374.714 102.053 378.69 103.547 378.69 103.778C378.838 103.881 378.415 103.824 363.217 107.974C336.279 115.327 342.393 113.921 337.795 114.628C336.693 114.798 335.196 114.147 335.816 112.754C336.522 111.378 337.248 110.005 337.95 108.61C338.037 108.438 336.78 106.837 336.625 106.632C335.814 105.257 334.881 103.967 335.457 102.23ZM351.257 109.934C356.408 108.569 371.811 104.574 377.057 103.898C371.559 103.845 366.063 104.143 360.602 104.792C353.384 105.665 346.251 107.137 339.278 109.194C338.506 110.512 337.811 111.873 337.195 113.27C338.048 113.278 338.899 113.174 339.725 112.96C343.616 112.278 347.435 110.947 351.257 109.934ZM336.853 104.775C337.518 105.907 338.161 106.925 338.764 107.887C350.078 104.468 366.07 102.235 377.44 103.572C371.946 101.913 366.32 100.722 360.625 100.012C354.916 99.3556 349.15 99.3787 343.447 100.081C341.294 100.36 337.331 100.17 336.597 102.814C336.506 103.142 336.483 103.484 336.526 103.821C336.57 104.157 336.681 104.482 336.853 104.775Z" fill="#128c7e"/>
</svg>
